0_True.ufoz
<glyph name="x" format="2">
  <advance width="1280"/>
  <unicode hex="0058"/>
  <outline>
    <contour>
      <point x="47.0" y="50.0" type="line"/>
      <point x="488.972" y="50.0" type="line"/>
      <point x="488.972" y="10.0" type="line"/>
      <point x="46.99999999999999" y="10.0" type="line"/>
    </contour>
    <contour>
      <point x="744.251" y="50.0" type="line"/>
      <point x="1231.695" y="50.0" type="line"/>
      <point x="1231.695" y="10.0" type="line"/>
      <point x="744.251" y="10.0" type="line"/>
    </contour>
    <contour>
      <point x="119.0" y="130.0" type="line"/>
      <point x="539.564" y="130.0" type="line"/>
      <point x="539.564" y="90.0" type="line"/>
      <point x="119.0" y="90.0" type="line"/>
    </contour>
    <contour>
      <point x="675.588" y="130.0" type="line"/>
      <point x="1156.213" y="130.0" type="line"/>
      <point x="1156.213" y="90.0" type="line"/>
      <point x="675.588" y="90.0" type="line"/>
    </contour>
    <contour>
      <point x="191.0" y="210.0" type="line"/>
      <point x="590.156" y="210.0" type="line"/>
      <point x="590.156" y="170.0" type="line"/>
      <point x="191.0" y="170.0" type="line"/>
    </contour>
    <contour>
      <point x="606.925" y="210.0" type="line"/>
      <point x="1080.732" y="210.0" type="line"/>
      <point x="1080.732" y="170.0" type="line"/>
      <point x="606.925" y="170.0" type="line"/>
    </contour>
    <contour>
      <point x="263.0" y="290.0" type="line"/>
      <point x="1005.251" y="290.0" type="line"/>
      <point x="1005.251" y="250.0" type="line"/>
      <point x="263.0" y="250.0" type="line"/>
    </contour>
    <contour>
      <point x="335.0" y="370.0" type="line"/>
      <point x="929.77" y="370.0" type="line"/>
      <point x="929.77" y="330.0" type="line"/>
      <point x="335.0" y="330.0" type="line"/>
    </contour>
    <contour>
      <point x="392.606" y="450.0" type="line"/>
      <point x="903.904" y="450.0" type="line"/>
      <point x="903.904" y="410.0" type="line"/>
      <point x="392.606" y="410.0" type="line"/>
    </contour>
    <contour>
      <point x="312.042" y="530.0" type="line"/>
      <point x="980.898" y="530.0" type="line"/>
      <point x="980.898" y="490.0" type="line"/>
      <point x="312.042" y="490.0" type="line"/>
    </contour>
    <contour>
      <point x="231.479" y="610.0" type="line"/>
      <point x="1057.891" y="610.0" type="line"/>
      <point x="1057.891" y="570.0" type="line"/>
      <point x="231.479" y="570.0" type="line"/>
    </contour>
    <contour>
      <point x="150.915" y="690.0" type="line"/>
      <point x="630.714" y="690.0" type="line"/>
      <point x="630.714" y="650.0" type="line"/>
      <point x="150.915" y="650.0" type="line"/>
    </contour>
    <contour>
      <point x="719.406" y="690.0" type="line"/>
      <point x="1134.885" y="690.0" type="line"/>
      <point x="1134.885" y="650.0" type="line"/>
      <point x="719.406" y="650.0" type="line"/>
    </contour>
    <contour>
      <point x="70.352" y="770.0" type="line"/>
      <point x="556.429" y="770.0" type="line"/>
      <point x="556.429" y="730.0" type="line"/>
      <point x="70.352" y="730.0" type="line"/>
    </contour>
    <contour>
      <point x="775.156" y="770.0" type="line"/>
      <point x="1211.879" y="770.0" type="line"/>
      <point x="1211.879" y="730.0" type="line"/>
      <point x="775.156" y="730.0" type="line"/>
    </contour>
  </outline>
</glyph>
<glyph name="y" format="2">
  <advance width="1210"/>
  <unicode hex="0059"/>
  <outline>
    <contour>
      <point x="395.0" y="50.0" type="line"/>
      <point x="815.0" y="50.0" type="line"/>
      <point x="815.0" y="10.0" type="line"/>
      <point x="395.0" y="10.0" type="line"/>
    </contour>
    <contour>
      <point x="395.0" y="130.0" type="line"/>
      <point x="815.0" y="130.0" type="line"/>
      <point x="815.0" y="90.0" type="line"/>
      <point x="395.0" y="90.0" type="line"/>
    </contour>
    <contour>
      <point x="395.0" y="210.0" type="line"/>
      <point x="815.0" y="210.0" type="line"/>
      <point x="815.0" y="170.0" type="line"/>
      <point x="395.0" y="170.0" type="line"/>
    </contour>
    <contour>
      <point x="356.864" y="290.0" type="line"/>
      <point x="853.136" y="290.0" type="line"/>
      <point x="853.136" y="250.0" type="line"/>
      <point x="356.864" y="250.0" type="line"/>
    </contour>
    <contour>
      <point x="306.017" y="370.0" type="line"/>
      <point x="903.983" y="370.0" type="line"/>
      <point x="903.983" y="330.0" type="line"/>
      <point x="306.017" y="330.0" type="line"/>
    </contour>
    <contour>
      <point x="255.169" y="450.0" type="line"/>
      <point x="954.831" y="450.0" type="line"/>
      <point x="954.831" y="410.0" type="line"/>
      <point x="255.169" y="410.0" type="line"/>
    </contour>
    <contour>
      <point x="204.322" y="530.0" type="line"/>
      <point x="614.661" y="530.0" type="line"/>
      <point x="614.661" y="490.0" type="line"/>
      <point x="204.322" y="490.0" type="line"/>
    </contour>
    <contour>
      <point x="690.085" y="530.0" type="line"/>
      <point x="1005.678" y="530.0" type="line"/>
      <point x="1005.678" y="490.0" type="line"/>
      <point x="690.085" y="490.0" type="line"/>
    </contour>
    <contour>
      <point x="153.475" y="610.0" type="line"/>
      <point x="569.237" y="610.0" type="line"/>
      <point x="569.237" y="570.0" type="line"/>
      <point x="153.475" y="570.0" type="line"/>
    </contour>
    <contour>
      <point x="731.441" y="610.0" type="line"/>
      <point x="1056.525" y="610.0" type="line"/>
      <point x="1056.525" y="570.0" type="line"/>
      <point x="731.441" y="570.0" type="line"/>
    </contour>
    <contour>
      <point x="102.627" y="690.0" type="line"/>
      <point x="523.814" y="690.0" type="line"/>
      <point x="523.814" y="650.0" type="line"/>
      <point x="102.627" y="650.0" type="line"/>
    </contour>
    <contour>
      <point x="772.797" y="690.0" type="line"/>
      <point x="1107.373" y="690.0" type="line"/>
      <point x="1107.373" y="650.0" type="line"/>
      <point x="772.797" y="650.0" type="line"/>
    </contour>
    <contour>
      <point x="51.78" y="770.0" type="line"/>
      <point x="478.39" y="770.0" type="line"/>
      <point x="478.39" y="730.0" type="line"/>
      <point x="51.779999999999994" y="730.0" type="line"/>
    </contour>
    <contour>
      <point x="814.153" y="770.0" type="line"/>
      <point x="1158.22" y="770.0" type="line"/>
      <point x="1158.22" y="730.0" type="line"/>
      <point x="814.153" y="730.0" type="line"/>
    </contour>
  </outline>
</glyph>
<glyph name="s_angle_0_step_80" format="2">
  <advance width="1210"/>
  <outline>
    <contour>
      <point x="26.0" y="40.0" type="line"/>
      <point x="950.743" y="0.0" type="line"/>
      <point x="950.743" y="40.0" type="line"/>
      <point x="25.999999999999996" y="0.0" type="line"/>
    </contour>
    <contour>
      <point x="37.915" y="120.0" type="line"/>
      <point x="1126.108" y="80.0" type="line"/>
      <point x="1126.108" y="120.0" type="line"/>
      <point x="37.91499999999999" y="80.0" type="line"/>
    </contour>
    <contour>
      <point x="49.83" y="200.0" type="line"/>
      <point x="1179.044" y="160.0" type="line"/>
      <point x="1179.044" y="200.0" type="line"/>
      <point x="49.82999999999999" y="160.0" type="line"/>
    </contour>
    <contour>
      <point x="785.209" y="280.0" type="line"/>
      <point x="1189.952" y="240.0" type="line"/>
      <point x="1189.952" y="280.0" type="line"/>
      <point x="785.209" y="240.0" type="line"/>
    </contour>
    <contour>
      <point x="120.284" y="360.0" type="line"/>
      <point x="1180.52" y="320.0" type="line"/>
      <point x="1180.52" y="360.0" type="line"/>
      <point x="120.284" y="320.0" type="line"/>
    </contour>
    <contour>
      <point x="43.241" y="440.0" type="line"/>
      <point x="1140.867" y="400.0" type="line"/>
      <point x="1140.867" y="440.0" type="line"/>
      <point x="43.24099999999999" y="400.0" type="line"/>
    </contour>
    <contour>
      <point x="21.29" y="520.0" type="line"/>
      <point x="996.621" y="480.0" type="line"/>
      <point x="996.621" y="520.0" type="line"/>
      <point x="21.289999999999996" y="480.0" type="line"/>
    </contour>
    <contour>
      <point x="23.993" y="600.0" type="line"/>
      <point x="1098.828" y="560.0" type="line"/>
      <point x="1098.828" y="600.0" type="line"/>
      <point x="23.992999999999995" y="560.0" type="line"/>
    </contour>
    <contour>
      <point x="53.764" y="680.0" type="line"/>
      <point x="1110.897" y="640.0" type="line"/>
      <point x="1110.897" y="680.0" type="line"/>
      <point x="53.763999999999996" y="640.0" type="line"/>
    </contour>
    <contour>
      <point x="145.94" y="760.0" type="line"/>
      <point x="1122.966" y="720.0" type="line"/>
      <point x="1122.966" y="760.0" type="line"/>
      <point x="145.94" y="720.0" type="line"/>
    </contour>
  </outline>
</glyph>
<glyph name="s_angle_180_step_80" format="2">
  <advance width="1210"/>
  <outline>
    <contour>
      <point x="1129.0" y="760.0000000000001" type="line"/>
      <point x="260.9379999999999" y="800.0" type="line"/>
      <point x="260.9379999999999" y="760.0" type="line"/>
      <point x="1129.0" y="800.0000000000001" type="line"/>
    </contour>
    <contour>
      <point x="1116.931" y="680.0000000000001" type="line"/>
      <point x="87.47199999999991" y="720.0" type="line"/>
      <point x="87.47199999999991" y="680.0" type="line"/>
      <point x="1116.931" y="720.0000000000001" type="line"/>
    </contour>
    <contour>
      <point x="1104.862" y="600.0000000000001" type="line"/>
      <point x="34.26299999999992" y="640.0" type="line"/>
      <point x="34.26299999999992" y="600.0" type="line"/>
      <point x="1104.862" y="640.0000000000001" type="line"/>
    </contour>
    <contour>
      <point x="409.14099999999996" y="520.0" type="line"/>
      <point x="20.16799999999994" y="560.0" type="line"/>
      <point x="20.167999999999928" y="520.0" type="line"/>
      <point x="409.14099999999996" y="560.0" type="line"/>
    </contour>
    <contour>
      <point x="1094.243" y="440.0000000000001" type="line"/>
      <point x="28.170999999999943" y="480.0" type="line"/>
      <point x="28.170999999999943" y="440.0" type="line"/>
      <point x="1094.243" y="480.0000000000001" type="line"/>
    </contour>
    <contour>
      <point x="1166.41" y="360.00000000000017" type="line"/>
      <point x="70.85699999999996" y="400.0" type="line"/>
      <point x="70.85699999999996" y="360.0" type="line"/>
      <point x="1166.41" y="400.00000000000017" type="line"/>
    </contour>
    <contour>
      <point x="1187.58" y="280.00000000000017" type="line"/>
      <point x="219.22199999999998" y="320.0" type="line"/>
      <point x="219.22199999999998" y="280.0" type="line"/>
      <point x="1187.58" y="320.00000000000017" type="line"/>
    </contour>
    <contour>
      <point x="1188.002" y="200.00000000000014" type="line"/>
      <point x="55.78699999999997" y="240.0" type="line"/>
      <point x="55.78699999999997" y="200.0" type="line"/>
      <point x="1188.002" y="240.00000000000014" type="line"/>
    </contour>
    <contour>
      <point x="1160.11" y="120.00000000000014" type="line"/>
      <point x="43.871999999999986" y="160.0" type="line"/>
      <point x="43.871999999999986" y="120.0" type="line"/>
      <point x="1160.11" y="160.00000000000014" type="line"/>
    </contour>
    <contour>
      <point x="1066.548" y="40.00000000000013" type="line"/>
      <point x="31.956999999999994" y="80.0" type="line"/>
      <point x="31.956999999999994" y="40.00000000000001" type="line"/>
      <point x="1066.548" y="80.00000000000013" type="line"/>
    </contour>
  </outline>
</glyph>
<glyph name="s_angle_315_step_80" format="2">
  <advance width="1210"/>
  <outline>
    <contour>
      <point x="1012.4658948944899" y="56.683800900257424" type="line"/>
      <point x="1198.8330794643598" y="186.48244297520375" type="line"/>
      <point x="1170.5488082168977" y="214.76671422266566" type="line"/>
      <point x="1040.750166141952" y="28.399529652795547" type="line"/>
    </contour>
    <contour>
      <point x="863.0655457382713" y="20.42053673388653" type="line"/>
      <point x="1199.7707030562133" y="300.5571515569047" type="line"/>
      <point x="1171.4864318087511" y="328.84142280436663" type="line"/>
      <point x="891.3498169857332" y="-7.863734513575356" type="line"/>
    </contour>
    <contour>
      <point x="737.4473189536999" y="7.939394939162689" type="line"/>
      <point x="1170.5085031303702" y="384.4320366209093" type="line"/>
      <point x="1142.224231882908" y="412.7163078683712" type="line"/>
      <point x="765.7315902011618" y="-20.344876308299195" type="line"/>
    </contour>
    <contour>
      <point x="620.5950949354982" y="4.224255910808608" type="line"/>
      <point x="1114.6859582895981" y="441.74657676998504" type="line"/>
      <point x="1086.4016870421365" y="470.03084801744694" type="line"/>
      <point x="648.8793661829601" y="-24.060015336653297" type="line"/>
    </contour>
    <contour>
      <point x="507.375985559033" y="4.142231524190947" type="line"/>
      <point x="780.4068843379074" y="220.60458780814167" type="line"/>
      <point x="752.1226130904455" y="248.88885905560358" type="line"/>
      <point x="535.6602568064949" y="-24.14203972327096" type="line"/>
    </contour>
    <contour>
      <point x="776.8826641404736" y="273.64891010563167" type="line"/>
      <point x="1037.7357699337533" y="477.9334734039877" type="line"/>
      <point x="1009.4514986862913" y="506.2177446514496" type="line"/>
      <point x="805.1669353879355" y="245.36463885816977" type="line"/>
    </contour>
    <contour>
      <point x="395.17440284069517" y="5.0777337957007305" type="line"/>
      <point x="666.5230945871267" y="219.85788304720862" type="line"/>
      <point x="638.2388233396648" y="248.14215429467052" type="line"/>
      <point x="423.45867408815707" y="-23.206537451761154" type="line"/>
    </contour>
    <contour>
      <point x="668.1812599890092" y="278.08459094401496" type="line"/>
      <point x="946.088367130946" y="499.42315559102803" type="line"/>
      <point x="917.8040958834841" y="527.7074268384899" type="line"/>
      <point x="696.4655312364711" y="249.80031969655306" type="line"/>
    </contour>
    <contour>
      <point x="961.4820817573772" y="571.3854127123831" type="line"/>
      <point x="1130.8157710752444" y="684.1505595353266" type="line"/>
      <point x="1102.5314998277827" y="712.4348307827885" type="line"/>
      <point x="989.7663530048391" y="543.1011414649212" type="line"/>
    </contour>
    <contour>
      <point x="287.07686788036403" y="10.117283825217186" type="line"/>
      <point x="553.3860095972791" y="219.85788304720856" type="line"/>
      <point x="525.1017383498172" y="248.14215429467046" type="line"/>
      <point x="315.36113912782594" y="-18.16698742224472" type="line"/>
    </contour>
    <contour>
      <point x="557.9129072104354" y="280.9533231552887" type="line"/>
      <point x="844.8497679481244" y="511.321641398054" type="line"/>
      <point x="816.5654967006625" y="539.6059126455159" type="line"/>
      <point x="586.1971784578973" y="252.66905190782677" type="line"/>
    </contour>
    <contour>
      <point x="854.1354941986662" y="577.1759101435196" type="line"/>
      <point x="1103.977533195309" y="770.4494066452387" type="line"/>
      <point x="1075.6932619478473" y="798.7336778927006" type="line"/>
      <point x="882.419765446128" y="548.8916388960577" type="line"/>
    </contour>
    <contour>
      <point x="181.40965892697113" y="17.587159861671836" type="line"/>
      <point x="441.0090643972071" y="220.6180228369841" type="line"/>
      <point x="412.7247931497452" y="248.902294084446" type="line"/>
      <point x="209.69393017443304" y="-10.69711138579007" type="line"/>
    </contour>
    <contour>
      <point x="447.7605199439762" y="283.93802087867704" type="line"/>
      <point x="737.5003519622887" y="517.109310402066" type="line"/>
      <point x="709.2160807148268" y="545.3935816495278" type="line"/>
      <point x="476.0447911914381" y="255.65374963121513" type="line"/>
    </contour>
    <contour>
      <point x="744.3373674295815" y="580.5148683642825" type="line"/>
      <point x="1001.3572473620488" y="780.966205801826" type="line"/>
      <point x="973.0729761145869" y="809.250477049288" type="line"/>
      <point x="772.6216386770434" y="552.2305971168206" type="line"/>
    </contour>
    <contour>
      <point x="77.6417387878453" y="26.95632471239358" type="line"/>
      <point x="330.83687814087466" y="223.58292157049925" type="line"/>
      <point x="302.55260689341276" y="251.86719281796115" type="line"/>
      <point x="105.9260100353072" y="-1.3279465350683246" type="line"/>
    </contour>
    <contour>
      <point x="341.53681795378947" y="290.8514038783379" type="line"/>
      <point x="627.0021894798293" y="519.7482329094541" type="line"/>
      <point x="598.7179182323674" y="548.032504156916" type="line"/>
      <point x="369.82108920125137" y="262.567132630876" type="line"/>
    </contour>
    <contour>
      <point x="631.8274861546463" y="581.1420720791949" type="line"/>
      <point x="896.8871701892048" y="789.6332136188297" type="line"/>
      <point x="868.6028989417429" y="817.9174848662916" type="line"/>
      <point x="660.1117574021082" y="552.857800831733" type="line"/>
    </contour>
    <contour>
      <point x="18.88752923227385" y="81.33920014666975" type="line"/>
      <point x="222.97622395224107" y="228.85935237171327" type="line"/>
      <point x="194.69195270477917" y="257.1436236191752" type="line"/>
      <point x="47.17180047973575" y="53.05492889920785" type="line"/>
    </contour>
    <contour>
      <point x="242.8459245035831" y="305.2975954179791" type="line"/>
      <point x="516.360484320789" y="522.2436127402614" type="line"/>
      <point x="488.07621307332715" y="550.5278839877233" type="line"/>
      <point x="271.130195751045" y="277.0133241705172" type="line"/>
    </contour>
    <contour>
      <point x="518.6904011647987" y="581.1420720791948" type="line"/>
      <point x="789.4896709422484" y="795.3727993617208" type="line"/>
      <point x="761.2053996947865" y="823.6570706091827" type="line"/>
      <point x="546.9746724122606" y="552.8578008317329" type="line"/>
    </contour>
    <contour>
      <point x="154.8577992934162" y="330.4465551976598" type="line"/>
      <point x="408.2587067197709" y="527.2789201290908" type="line"/>
      <point x="379.974435472309" y="555.5631913765527" type="line"/>
      <point x="183.1420705408781" y="302.1622839501979" type="line"/>
    </contour>
    <contour>
      <point x="404.2366833483818" y="579.8254392526255" type="line"/>
      <point x="676.8376612042948" y="795.8578746136149" type="line"/>
      <point x="648.5533899568329" y="824.1421458610768" type="line"/>
      <point x="432.5209545958437" y="551.5411680051636" type="line"/>
    </contour>
    <contour>
      <point x="81.99751655995433" y="370.7233574540455" type="line"/>
      <point x="563.040138480819" y="795.1974368799864" type="line"/>
      <point x="534.7558672333571" y="823.4817081274483" type="line"/>
      <point x="110.28178780741624" y="342.4390862065836" type="line"/>
    </contour>
    <contour>
      <point x="30.182852954947656" y="432.0457788388865" type="line"/>
      <point x="444.4434820334299" y="789.7378654224452" type="line"/>
      <point x="416.159210785968" y="818.0221366699071" type="line"/>
      <point x="58.46712420240957" y="403.7615075914246" type="line"/>
    </contour>
    <contour>
      <point x="6.559122502286245" y="521.5591333760727" type="line"/>
      <point x="315.6906508878587" y="774.1221192667214" type="line"/>
      <point x="287.4063796403968" y="802.4063905141833" type="line"/>
      <point x="34.843393749748145" y="493.27486212861083" type="line"/>
    </contour>
    <contour>
      <point x="30.954306453222102" y="659.0914023168563" type="line"/>
      <point x="147.3858019366179" y="718.9543553053282" type="line"/>
      <point x="119.101530689156" y="747.2386265527902" type="line"/>
      <point x="59.238577700684004" y="630.8071310693944" type="line"/>
    </contour>
  </outline>
</glyph>
<glyph name="x_angle_0_step_60" format="2">
  <advance width="1280"/>
  <outline>
    <contour>
      <point x="29.0" y="30.0" type="line"/>
      <point x="476.324" y="-10.0" type="line"/>
      <point x="476.324" y="30.0" type="line"/>
      <point x="28.999999999999996" y="-10.0" type="line"/>
    </contour>
    <contour>
      <point x="761.417" y="30.0" type="line"/>
      <point x="1250.565" y="-10.0" type="line"/>
      <point x="1250.565" y="30.0" type="line"/>
      <point x="761.417" y="-10.0" type="line"/>
    </contour>
    <contour>
      <point x="83.0" y="90.0" type="line"/>
      <point x="514.268" y="50.0" type="line"/>
      <point x="514.268" y="90.0" type="line"/>
      <point x="83.0" y="50.0" type="line"/>
    </contour>
    <contour>
      <point x="709.92" y="90.0" type="line"/>
      <point x="1193.954" y="50.0" type="line"/>
      <point x="1193.954" y="90.0" type="line"/>
      <point x="709.92" y="50.0" type="line"/>
    </contour>
    <contour>
      <point x="137.0" y="150.0" type="line"/>
      <point x="552.212" y="110.0" type="line"/>
      <point x="552.212" y="150.0" type="line"/>
      <point x="137.0" y="110.0" type="line"/>
    </contour>
    <contour>
      <point x="658.422" y="150.0" type="line"/>
      <point x="1137.343" y="110.0" type="line"/>
      <point x="1137.343" y="150.0" type="line"/>
      <point x="658.422" y="110.0" type="line"/>
    </contour>
    <contour>
      <point x="191.0" y="210.0" type="line"/>
      <point x="590.156" y="170.0" type="line"/>
      <point x="590.156" y="210.0" type="line"/>
      <point x="191.0" y="170.0" type="line"/>
    </contour>
    <contour>
      <point x="606.925" y="210.0" type="line"/>
      <point x="1080.732" y="170.0" type="line"/>
      <point x="1080.732" y="210.0" type="line"/>
      <point x="606.925" y="170.0" type="line"/>
    </contour>
    <contour>
      <point x="245.0" y="270.0" type="line"/>
      <point x="1024.121" y="230.0" type="line"/>
      <point x="1024.121" y="270.0" type="line"/>
      <point x="245.0" y="230.0" type="line"/>
    </contour>
    <contour>
      <point x="299.0" y="330.0" type="line"/>
      <point x="967.51" y="290.0" type="line"/>
      <point x="967.51" y="330.0" type="line"/>
      <point x="299.0" y="290.0" type="line"/>
    </contour>
    <contour>
      <point x="353.0" y="390.0" type="line"/>
      <point x="910.9" y="350.0" type="line"/>
      <point x="910.9" y="390.0" type="line"/>
      <point x="353.0" y="350.0" type="line"/>
    </contour>
    <contour>
      <point x="392.606" y="450.0" type="line"/>
      <point x="903.904" y="410.0" type="line"/>
      <point x="903.904" y="450.0" type="line"/>
      <point x="392.606" y="410.0" type="line"/>
    </contour>
    <contour>
      <point x="332.183" y="510.0" type="line"/>
      <point x="961.649" y="470.0" type="line"/>
      <point x="961.649" y="510.0" type="line"/>
      <point x="332.183" y="470.0" type="line"/>
    </contour>
    <contour>
      <point x="271.761" y="570.0" type="line"/>
      <point x="1019.395" y="530.0" type="line"/>
      <point x="1019.395" y="570.0" type="line"/>
      <point x="271.761" y="530.0" type="line"/>
    </contour>
    <contour>
      <point x="211.338" y="630.0" type="line"/>
      <point x="1077.14" y="590.0" type="line"/>
      <point x="1077.14" y="630.0" type="line"/>
      <point x="211.338" y="590.0" type="line"/>
    </contour>
    <contour>
      <point x="150.915" y="690.0" type="line"/>
      <point x="630.714" y="650.0" type="line"/>
      <point x="630.714" y="690.0" type="line"/>
      <point x="150.915" y="650.0" type="line"/>
    </contour>
    <contour>
      <point x="719.406" y="690.0" type="line"/>
      <point x="1134.885" y="650.0" type="line"/>
      <point x="1134.885" y="690.0" type="line"/>
      <point x="719.406" y="650.0" type="line"/>
    </contour>
    <contour>
      <point x="90.493" y="750.0" type="line"/>
      <point x="575.0" y="710.0" type="line"/>
      <point x="575.0" y="750.0" type="line"/>
      <point x="90.493" y="710.0" type="line"/>
    </contour>
    <contour>
      <point x="761.219" y="750.0" type="line"/>
      <point x="1192.63" y="710.0" type="line"/>
      <point x="1192.63" y="750.0" type="line"/>
      <point x="761.219" y="710.0" type="line"/>
    </contour>
    <contour>
      <point x="30.07" y="810.0" type="line"/>
      <point x="519.286" y="770.0" type="line"/>
      <point x="519.286" y="810.0" type="line"/>
      <point x="30.069999999999997" y="770.0" type="line"/>
    </contour>
    <contour>
      <point x="803.031" y="810.0" type="line"/>
      <point x="1250.376" y="770.0" type="line"/>
      <point x="1250.376" y="810.0" type="line"/>
      <point x="803.031" y="770.0" type="line"/>
    </contour>
  </outline>
</glyph>
<glyph name="x_angle_315_step_60" format="2">
  <advance width="1280"/>
  <outline>
    <contour>
      <point x="1062.0107457318877" y="14.142135623731178" type="line"/>
      <point x="1184.8903479529233" y="80.45319534984321" type="line"/>
      <point x="1156.6060767054616" y="108.73746659730512" type="line"/>
      <point x="1090.2950169793494" y="-14.142135623730727" type="line"/>
    </contour>
    <contour>
      <point x="977.1579319895019" y="14.142135623731168" type="line"/>
      <point x="1143.6971353081199" y="124.11279644742548" type="line"/>
      <point x="1115.4128640606577" y="152.39706769488737" type="line"/>
      <point x="1005.4422032369638" y="-14.142135623730713" type="line"/>
    </contour>
    <contour>
      <point x="892.3051182471162" y="14.142135623731122" type="line"/>
      <point x="1102.5032155565352" y="167.77169043822647" type="line"/>
      <point x="1074.2189443090735" y="196.05596168568837" type="line"/>
      <point x="920.5893894945781" y="-14.142135623730784" type="line"/>
    </contour>
    <contour>
      <point x="807.4523045047305" y="14.142135623731114" type="line"/>
      <point x="1061.3100029117318" y="211.4312915358086" type="line"/>
      <point x="1033.0257316642696" y="239.7155627832705" type="line"/>
      <point x="835.7365757521924" y="-14.14213562373077" type="line"/>
    </contour>
    <contour>
      <point x="740.4970705009574" y="32.03971536234377" type="line"/>
      <point x="1020.1167902669281" y="255.09089263339075" type="line"/>
      <point x="991.8325190194662" y="283.37516388085265" type="line"/>
      <point x="768.7813417484193" y="3.7554441148818647" type="line"/>
    </contour>
    <contour>
      <point x="701.3056771536931" y="77.70113575746518" type="line"/>
      <point x="978.9235776221245" y="298.75049373097306" type="line"/>
      <point x="950.6393063746626" y="327.03476497843496" type="line"/>
      <point x="729.589948401155" y="49.41686451000329" type="line"/>
    </contour>
    <contour>
      <point x="662.1149909132099" y="123.36326325936761" type="line"/>
      <point x="937.7303649773211" y="342.41009482855515" type="line"/>
      <point x="909.4460937298592" y="370.69436607601705" type="line"/>
      <point x="690.3992621606718" y="95.07899201190573" type="line"/>
    </contour>
    <contour>
      <point x="622.9235975659454" y="169.0246836544889" type="line"/>
      <point x="896.5364452257364" y="386.0689888193561" type="line"/>
      <point x="868.2521739782745" y="414.353260066818" type="line"/>
      <point x="651.2078688134073" y="140.740412407027" type="line"/>
    </contour>
    <contour>
      <point x="383.18823579280195" y="14.142135623731065" type="line"/>
      <point x="609.1597640701493" y="183.5451214061547" type="line"/>
      <point x="580.8754928226874" y="211.8293926536166" type="line"/>
      <point x="411.47250704026385" y="-14.14213562373084" type="line"/>
    </contour>
    <contour>
      <point x="583.7329113254622" y="214.6868111563914" type="line"/>
      <point x="1211.4719060712878" y="785.8572634072935" type="line"/>
      <point x="1183.187634823826" y="814.1415346547554" type="line"/>
      <point x="612.0171825729241" y="186.4025399089295" type="line"/>
    </contour>
    <contour>
      <point x="298.33542205041624" y="14.142135623731036" type="line"/>
      <point x="1126.619092328902" y="785.8572634072935" type="line"/>
      <point x="1098.3348210814404" y="814.1415346547554" type="line"/>
      <point x="326.61969329787814" y="-14.14213562373087" type="line"/>
    </contour>
    <contour>
      <point x="213.4826083080306" y="14.142135623730987" type="line"/>
      <point x="1041.7662785865166" y="785.8572634072935" type="line"/>
      <point x="1013.4820073390546" y="814.1415346547554" type="line"/>
      <point x="241.7668795554925" y="-14.142135623730898" type="line"/>
    </contour>
    <contour>
      <point x="128.62979456564486" y="14.14213562373098" type="line"/>
      <point x="956.9134648441309" y="785.8572634072935" type="line"/>
      <point x="928.629193596669" y="814.1415346547554" type="line"/>
      <point x="156.91406581310676" y="-14.142135623730926" type="line"/>
    </contour>
    <contour>
      <point x="43.77698082325915" y="14.142135623730965" type="line"/>
      <point x="691.6586193379649" y="605.4552316435131" type="line"/>
      <point x="663.374348090503" y="633.739502890975" type="line"/>
      <point x="72.06125207072105" y="-14.14213562373094" type="line"/>
    </contour>
    <contour>
      <point x="685.6948807454376" y="656.0600355459096" type="line"/>
      <point x="872.0606511017452" y="785.8572634072935" type="line"/>
      <point x="843.7763798542833" y="814.1415346547554" type="line"/>
      <point x="713.9791519928995" y="627.7757642984477" type="line"/>
    </contour>
    <contour>
      <point x="383.7122019176611" y="438.9301704605188" type="line"/>
      <point x="650.8034037345685" y="649.4528297825025" type="line"/>
      <point x="622.5191324871066" y="677.7371010299644" type="line"/>
      <point x="411.996473165123" y="410.6458992130569" type="line"/>
    </contour>
    <contour>
      <point x="341.13659551563785" y="481.20737780088126" type="line"/>
      <point x="609.9488952379534" y="693.4511350282731" type="line"/>
      <point x="581.6646239904915" y="721.735406275735" type="line"/>
      <point x="369.42086676309975" y="452.92310655341936" type="line"/>
    </contour>
    <contour>
      <point x="298.56169622039585" y="523.4852922480248" type="line"/>
      <point x="569.093679634557" y="737.4487331672625" type="line"/>
      <point x="540.8094083870951" y="765.7330044147244" type="line"/>
      <point x="326.84596746785775" y="495.201021000563" type="line"/>
    </contour>
    <contour>
      <point x="255.9860898183726" y="565.7624995883874" type="line"/>
      <point x="528.2384640311607" y="781.4463313062516" type="line"/>
      <point x="499.9541927836988" y="809.7306025537135" type="line"/>
      <point x="284.2703610658345" y="537.4782283409255" type="line"/>
    </contour>
    <contour>
      <point x="213.4111905231306" y="608.0404140355312" type="line"/>
      <point x="447.79658238981665" y="785.8572634072935" type="line"/>
      <point x="419.51231114235475" y="814.1415346547554" type="line"/>
      <point x="241.69546177059252" y="579.7561427880693" type="line"/>
    </contour>
    <contour>
      <point x="170.83558412110736" y="650.3176213758936" type="line"/>
      <point x="362.94376864743094" y="785.8572634072935" type="line"/>
      <point x="334.65949739996904" y="814.1415346547554" type="line"/>
      <point x="199.11985536856926" y="622.0333501284317" type="line"/>
    </contour>
    <contour>
      <point x="128.26068482586527" y="692.5955358230373" type="line"/>
      <point x="278.0909549050452" y="785.8572634072935" type="line"/>
      <point x="249.80668365758328" y="814.1415346547554" type="line"/>
      <point x="156.54495607332717" y="664.3112645755754" type="line"/>
    </contour>
    <contour>
      <point x="85.68507842384207" y="734.8727431633996" type="line"/>
      <point x="193.23814116265953" y="785.8572634072933" type="line"/>
      <point x="164.95386991519763" y="814.1415346547552" type="line"/>
      <point x="113.96934967130399" y="706.5884719159377" type="line"/>
    </contour>
  </outline>
</glyph>
<glyph name="x_angle_45_step_80" format="2">
  <advance width="1280"/>
  <outline>
    <contour>
      <point x="107.83024859704256" y="96.01732271054011" type="line"/>
      <point x="161.4211644363898" y="-14.142135623730933" type="line"/>
      <point x="189.7054356838517" y="14.142135623730963" type="line"/>
      <point x="79.54597734958065" y="67.73305146307821" type="line"/>
    </contour>
    <contour>
      <point x="161.4211644363898" y="155.56349186104046" type="line"/>
      <point x="274.5582494262374" y="-14.142135623730947" type="line"/>
      <point x="302.8425206736993" y="14.14213562373095" type="line"/>
      <point x="133.1368931889279" y="127.27922061357856" type="line"/>
    </contour>
    <contour>
      <point x="215.0127873825182" y="215.10895390475963" type="line"/>
      <point x="387.69533441608496" y="-14.142135623730919" type="line"/>
      <point x="415.97960566354686" y="14.142135623730978" type="line"/>
      <point x="186.7285161350563" y="186.82468265729773" type="line"/>
    </contour>
    <contour>
      <point x="268.6037032218655" y="274.65512305526" type="line"/>
      <point x="473.2814178905611" y="13.408865891640577" type="line"/>
      <point x="501.565689138023" y="41.693137139102475" type="line"/>
      <point x="240.31943197440359" y="246.3708518077981" type="line"/>
    </contour>
    <contour>
      <point x="322.1953261679939" y="334.20058509897916" type="line"/>
      <point x="517.1107246156281" y="82.71664415642118" type="line"/>
      <point x="545.39499586309" y="111.00091540388308" type="line"/>
      <point x="293.911054920532" y="305.91631385151726" type="line"/>
    </contour>
    <contour>
      <point x="375.78624200734123" y="393.7467542494796" type="line"/>
      <point x="560.9407384474763" y="152.02371531442068" type="line"/>
      <point x="589.2250096949382" y="180.3079865618826" type="line"/>
      <point x="347.5019707598793" y="365.4624830020177" type="line"/>
    </contour>
    <contour>
      <point x="68.52783948513178" y="814.1422417615365" type="line"/>
      <point x="840.2436743754755" y="-14.142135623730834" type="line"/>
      <point x="868.5279456229374" y="14.142135623731065" type="line"/>
      <point x="40.24356823766988" y="785.8579705140746" type="line"/>
    </contour>
    <contour>
      <point x="181.66492447497944" y="814.1422417615364" type="line"/>
      <point x="953.3807593653231" y="-14.142135623730834" type="line"/>
      <point x="981.665030612785" y="14.142135623731065" type="line"/>
      <point x="153.38065322751754" y="785.8579705140745" type="line"/>
    </contour>
    <contour>
      <point x="294.8020094648271" y="814.1422417615364" type="line"/>
      <point x="1066.5178443551706" y="-14.142135623730947" type="line"/>
      <point x="1094.8021156026325" y="14.14213562373095" type="line"/>
      <point x="266.5177382173652" y="785.8579705140745" type="line"/>
    </contour>
    <contour>
      <point x="407.9390944546747" y="814.1422417615364" type="line"/>
      <point x="1179.6549293450182" y="-14.142135623730947" type="line"/>
      <point x="1207.9392005924801" y="14.14213562373095" type="line"/>
      <point x="379.6548232072128" y="785.8579705140745" type="line"/>
    </contour>
    <contour>
      <point x="699.6786244501827" y="635.539796755876" type="line"/>
      <point x="876.5352228130938" y="402.1146558980412" type="line"/>
      <point x="904.8194940605557" y="430.3989271455031" type="line"/>
      <point x="671.3943532027208" y="607.255525508414" type="line"/>
    </contour>
    <contour>
      <point x="746.1419039351696" y="702.2136022607367" type="line"/>
      <point x="932.0204777192398" y="459.76648598174273" type="line"/>
      <point x="960.3047489667017" y="488.05075722920463" type="line"/>
      <point x="717.8576326877077" y="673.9293310132748" type="line"/>
    </contour>
    <contour>
      <point x="792.6051834201564" y="768.8874077655975" type="line"/>
      <point x="987.5057326253858" y="517.4183160654444" type="line"/>
      <point x="1015.7900038728477" y="545.7025873129063" type="line"/>
      <point x="764.3209121726945" y="740.6031365181356" type="line"/>
    </contour>
    <contour>
      <point x="860.4874344140651" y="814.1422417615364" type="line"/>
      <point x="1042.9909875315316" y="575.0701461491459" type="line"/>
      <point x="1071.2752587789937" y="603.3544173966078" type="line"/>
      <point x="832.2031631666032" y="785.8579705140745" type="line"/>
    </contour>
    <contour>
      <point x="973.6245194039127" y="814.1422417615364" type="line"/>
      <point x="1098.4762424376777" y="632.7219762328475" type="line"/>
      <point x="1126.7605136851398" y="661.0062474803094" type="line"/>
      <point x="945.3402481564508" y="785.8579705140745" type="line"/>
    </contour>
    <contour>
      <point x="1086.76160439376" y="814.1422417615365" type="line"/>
      <point x="1153.961497343824" y="690.3738063165491" type="line"/>
      <point x="1182.2457685912857" y="718.658077564011" type="line"/>
      <point x="1058.4773331462984" y="785.8579705140746" type="line"/>
    </contour>
  </outline>
</glyph>
<glyph name="x_angle_90_step_80" format="2">
  <advance width="1280"/>
  <outline>
    <contour>
      <point x="149.99999999999994" y="800.0" type="line"/>
      <point x="109.99999999999997" y="690.769" type="line"/>
      <point x="149.99999999999997" y="690.769" type="line"/>
      <point x="109.99999999999994" y="800.0" type="line"/>
    </contour>
    <contour>
      <point x="150.0" y="122.22200000000001" type="line"/>
      <point x="110.0" y="1.0409497792752502e-14" type="line"/>
      <point x="150.0" y="7.960204194457796e-15" type="line"/>
      <point x="110.0" y="122.22200000000001" type="line"/>
    </contour>
    <contour>
      <point x="229.99999999999994" y="800.0" type="line"/>
      <point x="189.99999999999997" y="611.329" type="line"/>
      <point x="229.99999999999997" y="611.329" type="line"/>
      <point x="189.99999999999994" y="800.0" type="line"/>
    </contour>
    <contour>
      <point x="230.0" y="211.111" type="line"/>
      <point x="190.0" y="1.5308084989341916e-14" type="line"/>
      <point x="230.0" y="1.2858791391047208e-14" type="line"/>
      <point x="190.0" y="211.111" type="line"/>
    </contour>
    <contour>
      <point x="309.99999999999994" y="800.0" type="line"/>
      <point x="269.99999999999994" y="531.888" type="line"/>
      <point x="309.99999999999994" y="531.888" type="line"/>
      <point x="269.99999999999994" y="800.0" type="line"/>
    </contour>
    <contour>
      <point x="310.0" y="300.0" type="line"/>
      <point x="270.0" y="2.0206672185931328e-14" type="line"/>
      <point x="310.0" y="1.7757378587636622e-14" type="line"/>
      <point x="270.0" y="300.0" type="line"/>
    </contour>
    <contour>
      <point x="389.99999999999994" y="800.0" type="line"/>
      <point x="350.0" y="452.448" type="line"/>
      <point x="390.0" y="452.448" type="line"/>
      <point x="349.99999999999994" y="800.0" type="line"/>
    </contour>
    <contour>
      <point x="390.0" y="388.889" type="line"/>
      <point x="350.0" y="2.510525938252074e-14" type="line"/>
      <point x="390.0" y="2.2655965784226034e-14" type="line"/>
      <point x="350.0" y="388.889" type="line"/>
    </contour>
    <contour>
      <point x="469.99999999999994" y="800.0" type="line"/>
      <point x="430.0" y="3.0003846579110155e-14" type="line"/>
      <point x="470.0" y="2.7554552980815446e-14" type="line"/>
      <point x="429.99999999999994" y="800.0" type="line"/>
    </contour>
    <contour>
      <point x="550.0" y="778.462" type="line"/>
      <point x="510.0" y="94.87700000000002" type="line"/>
      <point x="550.0" y="94.87700000000002" type="line"/>
      <point x="510.0" y="778.462" type="line"/>
    </contour>
    <contour>
      <point x="630.0" y="692.308" type="line"/>
      <point x="590.0" y="186.41700000000003" type="line"/>
      <point x="630.0" y="186.41700000000003" type="line"/>
      <point x="590.0" y="692.308" type="line"/>
    </contour>
    <contour>
      <point x="710.0" y="627.803" type="line"/>
      <point x="670.0" y="93.20900000000005" type="line"/>
      <point x="710.0" y="93.20900000000005" type="line"/>
      <point x="670.0" y="627.803" type="line"/>
    </contour>
    <contour>
      <point x="790.0" y="742.601" type="line"/>
      <point x="750.0" y="4.959819536546781e-14" type="line"/>
      <point x="790.0" y="4.71489017671731e-14" type="line"/>
      <point x="750.0" y="742.601" type="line"/>
    </contour>
    <contour>
      <point x="870.0" y="800.0" type="line"/>
      <point x="830.0" y="5.449678256205722e-14" type="line"/>
      <point x="870.0" y="5.2047488963762514e-14" type="line"/>
      <point x="830.0" y="800.0" type="line"/>
    </contour>
    <contour>
      <point x="950.0" y="800.0000000000001" type="line"/>
      <point x="910.0" y="457.11500000000007" type="line"/>
      <point x="950.0" y="457.11500000000007" type="line"/>
      <point x="910.0" y="800.0000000000001" type="line"/>
    </contour>
    <contour>
      <point x="950.0" y="349.75600000000003" type="line"/>
      <point x="910.0" y="5.939536975864662e-14" type="line"/>
      <point x="950.0" y="5.694607616035192e-14" type="line"/>
      <point x="910.0" y="349.75600000000003" type="line"/>
    </contour>
    <contour>
      <point x="1030.0" y="800.0000000000001" type="line"/>
      <point x="990.0" y="540.2390000000001" type="line"/>
      <point x="1030.0" y="540.2390000000001" type="line"/>
      <point x="990.0" y="800.0000000000001" type="line"/>
    </contour>
    <contour>
      <point x="1030.0" y="264.96700000000004" type="line"/>
      <point x="990.0" y="6.429395695523604e-14" type="line"/>
      <point x="1030.0" y="6.184466335694134e-14" type="line"/>
      <point x="990.0" y="264.96700000000004" type="line"/>
    </contour>
    <contour>
      <point x="1110.0" y="800.0000000000001" type="line"/>
      <point x="1070.0" y="623.3620000000001" type="line"/>
      <point x="1110.0" y="623.3620000000001" type="line"/>
      <point x="1070.0" y="800.0000000000001" type="line"/>
    </contour>
    <contour>
      <point x="1110.0" y="180.17700000000005" type="line"/>
      <point x="1070.0" y="6.919254415182545e-14" type="line"/>
      <point x="1110.0" y="6.674325055353074e-14" type="line"/>
      <point x="1070.0" y="180.17700000000005" type="line"/>
    </contour>
    <contour>
      <point x="1190.0" y="800.0000000000001" type="line"/>
      <point x="1150.0" y="706.4860000000001" type="line"/>
      <point x="1190.0" y="706.4860000000001" type="line"/>
      <point x="1150.0" y="800.0000000000001" type="line"/>
    </contour>
    <contour>
      <point x="1190.0" y="95.38800000000008" type="line"/>
      <point x="1150.0" y="7.409113134841487e-14" type="line"/>
      <point x="1190.0" y="7.164183775012016e-14" type="line"/>
      <point x="1150.0" y="95.38800000000008" type="line"/>
    </contour>
  </outline>
</glyph>
<glyph name="y_angle_0_step_40" format="2">
  <advance width="1210"/>
  <outline>
    <contour>
      <point x="395.0" y="50.0" type="line"/>
      <point x="815.0" y="10.0" type="line"/>
      <point x="815.0" y="50.0" type="line"/>
      <point x="395.0" y="10.0" type="line"/>
    </contour>
    <contour>
      <point x="395.0" y="90.0" type="line"/>
      <point x="815.0" y="50.0" type="line"/>
      <point x="815.0" y="90.0" type="line"/>
      <point x="395.0" y="50.0" type="line"/>
    </contour>
    <contour>
      <point x="395.0" y="130.0" type="line"/>
      <point x="815.0" y="90.0" type="line"/>
      <point x="815.0" y="130.0" type="line"/>
      <point x="395.0" y="90.0" type="line"/>
    </contour>
    <contour>
      <point x="395.0" y="170.0" type="line"/>
      <point x="815.0" y="130.0" type="line"/>
      <point x="815.0" y="170.0" type="line"/>
      <point x="395.0" y="130.0" type="line"/>
    </contour>
    <contour>
      <point x="395.0" y="210.0" type="line"/>
      <point x="815.0" y="170.0" type="line"/>
      <point x="815.0" y="210.0" type="line"/>
      <point x="395.0" y="170.0" type="line"/>
    </contour>
    <contour>
      <point x="382.288" y="250.0" type="line"/>
      <point x="827.712" y="210.0" type="line"/>
      <point x="827.712" y="250.0" type="line"/>
      <point x="382.288" y="210.0" type="line"/>
    </contour>
    <contour>
      <point x="356.864" y="290.0" type="line"/>
      <point x="853.136" y="250.0" type="line"/>
      <point x="853.136" y="290.0" type="line"/>
      <point x="356.864" y="250.0" type="line"/>
    </contour>
    <contour>
      <point x="331.441" y="330.0" type="line"/>
      <point x="878.559" y="290.0" type="line"/>
      <point x="878.559" y="330.0" type="line"/>
      <point x="331.441" y="290.0" type="line"/>
    </contour>
    <contour>
      <point x="306.017" y="370.0" type="line"/>
      <point x="903.983" y="330.0" type="line"/>
      <point x="903.983" y="370.0" type="line"/>
      <point x="306.017" y="330.0" type="line"/>
    </contour>
    <contour>
      <point x="280.593" y="410.0" type="line"/>
      <point x="929.407" y="370.0" type="line"/>
      <point x="929.407" y="410.0" type="line"/>
      <point x="280.593" y="370.0" type="line"/>
    </contour>
    <contour>
      <point x="255.169" y="450.0" type="line"/>
      <point x="954.831" y="410.0" type="line"/>
      <point x="954.831" y="450.0" type="line"/>
      <point x="255.169" y="410.0" type="line"/>
    </contour>
    <contour>
      <point x="229.746" y="490.0" type="line"/>
      <point x="637.373" y="450.0" type="line"/>
      <point x="637.373" y="490.0" type="line"/>
      <point x="229.746" y="450.0" type="line"/>
    </contour>
    <contour>
      <point x="669.407" y="490.0" type="line"/>
      <point x="980.254" y="450.0" type="line"/>
      <point x="980.254" y="490.0" type="line"/>
      <point x="669.407" y="450.0" type="line"/>
    </contour>
    <contour>
      <point x="204.322" y="530.0" type="line"/>
      <point x="614.661" y="490.0" type="line"/>
      <point x="614.661" y="530.0" type="line"/>
      <point x="204.322" y="490.0" type="line"/>
    </contour>
    <contour>
      <point x="690.085" y="530.0" type="line"/>
      <point x="1005.678" y="490.0" type="line"/>
      <point x="1005.678" y="530.0" type="line"/>
      <point x="690.085" y="490.0" type="line"/>
    </contour>
    <contour>
      <point x="178.898" y="570.0" type="line"/>
      <point x="591.949" y="530.0" type="line"/>
      <point x="591.949" y="570.0" type="line"/>
      <point x="178.898" y="530.0" type="line"/>
    </contour>
    <contour>
      <point x="710.763" y="570.0" type="line"/>
      <point x="1031.102" y="530.0" type="line"/>
      <point x="1031.102" y="570.0" type="line"/>
      <point x="710.763" y="530.0" type="line"/>
    </contour>
    <contour>
      <point x="153.475" y="610.0" type="line"/>
      <point x="569.237" y="570.0" type="line"/>
      <point x="569.237" y="610.0" type="line"/>
      <point x="153.475" y="570.0" type="line"/>
    </contour>
    <contour>
      <point x="731.441" y="610.0" type="line"/>
      <point x="1056.525" y="570.0" type="line"/>
      <point x="1056.525" y="610.0" type="line"/>
      <point x="731.441" y="570.0" type="line"/>
    </contour>
    <contour>
      <point x="128.051" y="650.0" type="line"/>
      <point x="546.525" y="610.0" type="line"/>
      <point x="546.525" y="650.0" type="line"/>
      <point x="128.051" y="610.0" type="line"/>
    </contour>
    <contour>
      <point x="752.119" y="650.0" type="line"/>
      <point x="1081.949" y="610.0" type="line"/>
      <point x="1081.949" y="650.0" type="line"/>
      <point x="752.119" y="610.0" type="line"/>
    </contour>
    <contour>
      <point x="102.627" y="690.0" type="line"/>
      <point x="523.814" y="650.0" type="line"/>
      <point x="523.814" y="690.0" type="line"/>
      <point x="102.627" y="650.0" type="line"/>
    </contour>
    <contour>
      <point x="772.797" y="690.0" type="line"/>
      <point x="1107.373" y="650.0" type="line"/>
      <point x="1107.373" y="690.0" type="line"/>
      <point x="772.797" y="650.0" type="line"/>
    </contour>
    <contour>
      <point x="77.203" y="730.0" type="line"/>
      <point x="501.102" y="690.0" type="line"/>
      <point x="501.102" y="730.0" type="line"/>
      <point x="77.203" y="690.0" type="line"/>
    </contour>
    <contour>
      <point x="793.475" y="730.0" type="line"/>
      <point x="1132.797" y="690.0" type="line"/>
      <point x="1132.797" y="730.0" type="line"/>
      <point x="793.475" y="690.0" type="line"/>
    </contour>
    <contour>
      <point x="51.78" y="770.0" type="line"/>
      <point x="478.39" y="730.0" type="line"/>
      <point x="478.39" y="770.0" type="line"/>
      <point x="51.779999999999994" y="730.0" type="line"/>
    </contour>
    <contour>
      <point x="814.153" y="770.0" type="line"/>
      <point x="1158.22" y="730.0" type="line"/>
      <point x="1158.22" y="770.0" type="line"/>
      <point x="814.153" y="730.0" type="line"/>
    </contour>
    <contour>
      <point x="26.356" y="810.0" type="line"/>
      <point x="455.678" y="770.0" type="line"/>
      <point x="455.678" y="810.0" type="line"/>
      <point x="26.355999999999998" y="770.0" type="line"/>
    </contour>
    <contour>
      <point x="834.831" y="810.0" type="line"/>
      <point x="1183.644" y="770.0" type="line"/>
      <point x="1183.644" y="810.0" type="line"/>
      <point x="834.831" y="770.0" type="line"/>
    </contour>
  </outline>
</glyph>
<glyph name="y_angle_180_step_40" format="2">
  <advance width="1210"/>
  <outline>
    <contour>
      <point x="1170.932" y="750.0000000000001" type="line"/>
      <point x="824.4919999999998" y="790.0000000000001" type="line"/>
      <point x="824.4919999999998" y="750.0000000000001" type="line"/>
      <point x="1170.932" y="790.0000000000001" type="line"/>
    </contour>
    <contour>
      <point x="467.0339999999999" y="750.0000000000001" type="line"/>
      <point x="39.0679999999999" y="790.0" type="line"/>
      <point x="39.06799999999991" y="750.0" type="line"/>
      <point x="467.0339999999999" y="790.0000000000001" type="line"/>
    </contour>
    <contour>
      <point x="1145.508" y="710.0000000000001" type="line"/>
      <point x="803.8139999999999" y="750.0000000000001" type="line"/>
      <point x="803.8139999999999" y="710.0000000000001" type="line"/>
      <point x="1145.508" y="750.0000000000001" type="line"/>
    </contour>
    <contour>
      <point x="489.74599999999987" y="710.0000000000001" type="line"/>
      <point x="64.4919999999999" y="750.0" type="line"/>
      <point x="64.49199999999993" y="710.0" type="line"/>
      <point x="489.74599999999987" y="750.0000000000001" type="line"/>
    </contour>
    <contour>
      <point x="1120.085" y="670.0000000000001" type="line"/>
      <point x="783.1359999999999" y="710.0000000000001" type="line"/>
      <point x="783.1359999999999" y="670.0000000000001" type="line"/>
      <point x="1120.085" y="710.0000000000001" type="line"/>
    </contour>
    <contour>
      <point x="512.4579999999999" y="670.0000000000001" type="line"/>
      <point x="89.9149999999999" y="710.0" type="line"/>
      <point x="89.91499999999994" y="670.0" type="line"/>
      <point x="512.4579999999999" y="710.0000000000001" type="line"/>
    </contour>
    <contour>
      <point x="1094.661" y="630.0000000000001" type="line"/>
      <point x="762.4579999999999" y="670.0000000000001" type="line"/>
      <point x="762.4579999999999" y="630.0000000000001" type="line"/>
      <point x="1094.661" y="670.0000000000001" type="line"/>
    </contour>
    <contour>
      <point x="535.1689999999999" y="630.0000000000001" type="line"/>
      <point x="115.3389999999999" y="670.0" type="line"/>
      <point x="115.33899999999993" y="630.0" type="line"/>
      <point x="535.1689999999999" y="670.0000000000001" type="line"/>
    </contour>
    <contour>
      <point x="1069.237" y="590.0000000000001" type="line"/>
      <point x="741.7799999999999" y="630.0000000000001" type="line"/>
      <point x="741.7799999999999" y="590.0000000000001" type="line"/>
      <point x="1069.237" y="630.0000000000001" type="line"/>
    </contour>
    <contour>
      <point x="557.8809999999999" y="590.0000000000001" type="line"/>
      <point x="140.76299999999992" y="630.0" type="line"/>
      <point x="140.76299999999992" y="590.0" type="line"/>
      <point x="557.8809999999999" y="630.0000000000001" type="line"/>
    </contour>
    <contour>
      <point x="1043.814" y="550.0000000000001" type="line"/>
      <point x="721.1019999999999" y="590.0000000000001" type="line"/>
      <point x="721.1019999999999" y="550.0000000000001" type="line"/>
      <point x="1043.814" y="590.0000000000001" type="line"/>
    </contour>
    <contour>
      <point x="580.5929999999998" y="550.0000000000001" type="line"/>
      <point x="166.18599999999995" y="590.0" type="line"/>
      <point x="166.18599999999995" y="550.0" type="line"/>
      <point x="580.5929999999998" y="590.0000000000001" type="line"/>
    </contour>
    <contour>
      <point x="1018.3899999999999" y="510.0000000000001" type="line"/>
      <point x="700.4239999999999" y="550.0000000000001" type="line"/>
      <point x="700.4239999999999" y="510.0000000000001" type="line"/>
      <point x="1018.3899999999999" y="550.0000000000001" type="line"/>
    </contour>
    <contour>
      <point x="603.3049999999998" y="510.0000000000001" type="line"/>
      <point x="191.60999999999996" y="550.0" type="line"/>
      <point x="191.60999999999996" y="510.0" type="line"/>
      <point x="603.3049999999998" y="550.0000000000001" type="line"/>
    </contour>
    <contour>
      <point x="992.9659999999999" y="470.0000000000001" type="line"/>
      <point x="679.7459999999999" y="510.00000000000006" type="line"/>
      <point x="679.7459999999999" y="470.00000000000006" type="line"/>
      <point x="992.9659999999999" y="510.0000000000001" type="line"/>
    </contour>
    <contour>
      <point x="626.0169999999999" y="470.00000000000006" type="line"/>
      <point x="217.03399999999993" y="510.0" type="line"/>
      <point x="217.03399999999993" y="470.0" type="line"/>
      <point x="626.0169999999999" y="510.00000000000006" type="line"/>
    </contour>
    <contour>
      <point x="967.542" y="430.0000000000001" type="line"/>
      <point x="659.068" y="470.00000000000006" type="line"/>
      <point x="659.068" y="430.00000000000006" type="line"/>
      <point x="967.542" y="470.0000000000001" type="line"/>
    </contour>
    <contour>
      <point x="648.729" y="430.00000000000006" type="line"/>
      <point x="242.45799999999994" y="470.00000000000006" type="line"/>
      <point x="242.45799999999994" y="430.00000000000006" type="line"/>
      <point x="648.729" y="470.00000000000006" type="line"/>
    </contour>
    <contour>
      <point x="942.119" y="390.0000000000001" type="line"/>
      <point x="267.8809999999999" y="430.00000000000006" type="line"/>
      <point x="267.8809999999999" y="390.00000000000006" type="line"/>
      <point x="942.119" y="430.0000000000001" type="line"/>
    </contour>
    <contour>
      <point x="916.695" y="350.0000000000001" type="line"/>
      <point x="293.30499999999995" y="390.00000000000006" type="line"/>
      <point x="293.30499999999995" y="350.00000000000006" type="line"/>
      <point x="916.695" y="390.0000000000001" type="line"/>
    </contour>
    <contour>
      <point x="891.271" y="310.0000000000001" type="line"/>
      <point x="318.7289999999999" y="350.00000000000006" type="line"/>
      <point x="318.7289999999999" y="310.00000000000006" type="line"/>
      <point x="891.271" y="350.0000000000001" type="line"/>
    </contour>
    <contour>
      <point x="865.847" y="270.0000000000001" type="line"/>
      <point x="344.15299999999996" y="310.00000000000006" type="line"/>
      <point x="344.15299999999996" y="270.00000000000006" type="line"/>
      <point x="865.847" y="310.0000000000001" type="line"/>
    </contour>
    <contour>
      <point x="840.424" y="230.0000000000001" type="line"/>
      <point x="369.57599999999996" y="270.00000000000006" type="line"/>
      <point x="369.57599999999996" y="230.00000000000006" type="line"/>
      <point x="840.424" y="270.0000000000001" type="line"/>
    </contour>
    <contour>
      <point x="815.0" y="190.0000000000001" type="line"/>
      <point x="395.0" y="230.00000000000006" type="line"/>
      <point x="395.0" y="190.00000000000006" type="line"/>
      <point x="815.0" y="230.0000000000001" type="line"/>
    </contour>
    <contour>
      <point x="815.0" y="150.0000000000001" type="line"/>
      <point x="395.0" y="190.00000000000006" type="line"/>
      <point x="395.0" y="150.00000000000006" type="line"/>
      <point x="815.0" y="190.0000000000001" type="line"/>
    </contour>
    <contour>
      <point x="815.0" y="110.00000000000011" type="line"/>
      <point x="395.0" y="150.00000000000006" type="line"/>
      <point x="395.0" y="110.00000000000006" type="line"/>
      <point x="815.0" y="150.0000000000001" type="line"/>
    </contour>
    <contour>
      <point x="815.0" y="70.0000000000001" type="line"/>
      <point x="395.0" y="110.00000000000004" type="line"/>
      <point x="395.0" y="70.00000000000004" type="line"/>
      <point x="815.0" y="110.0000000000001" type="line"/>
    </contour>
    <contour>
      <point x="815.0" y="30.0000000000001" type="line"/>
      <point x="395.0" y="70.00000000000006" type="line"/>
      <point x="395.0" y="30.00000000000005" type="line"/>
      <point x="815.0" y="70.0000000000001" type="line"/>
    </contour>
    <contour>
      <point x="815.0" y="-9.9999999999999" type="line"/>
      <point x="395.0" y="30.00000000000005" type="line"/>
      <point x="395.0" y="-9.999999999999952" type="line"/>
      <point x="815.0" y="30.0000000000001" type="line"/>
    </contour>
  </outline>
</glyph>
<glyph name="y_angle_225_step_60" format="2">
  <advance width="1210"/>
  <outline>
    <contour>
      <point x="1137.3876214995923" y="725.3324584716311" type="line"/>
      <point x="1105.1470878113914" y="814.1415346547554" type="line"/>
      <point x="1076.8628165639298" y="785.8572634072935" type="line"/>
      <point x="1165.671892747054" y="753.616729719093" type="line"/>
    </contour>
    <contour>
      <point x="1104.4138180793013" y="673.4534481495365" type="line"/>
      <point x="1020.2942740690058" y="814.1415346547554" type="line"/>
      <point x="992.0100028215439" y="785.8572634072935" type="line"/>
      <point x="1132.698089326763" y="701.7377193969984" type="line"/>
    </contour>
    <contour>
      <point x="1071.4400146590099" y="621.5744378274418" type="line"/>
      <point x="935.4414603266201" y="814.1415346547554" type="line"/>
      <point x="907.1571890791582" y="785.8572634072935" type="line"/>
      <point x="1099.724285906472" y="649.8587090749037" type="line"/>
    </contour>
    <contour>
      <point x="1038.466211238719" y="569.6954275053472" type="line"/>
      <point x="852.9305842435242" y="811.7995969954657" type="line"/>
      <point x="824.6463129960623" y="783.5153257480038" type="line"/>
      <point x="1066.7504824861808" y="597.9796987528091" type="line"/>
    </contour>
    <contour>
      <point x="1005.492407818428" y="517.8164171832526" type="line"/>
      <point x="824.0148666404629" y="755.8625008561414" type="line"/>
      <point x="795.730595393001" y="727.5782296086795" type="line"/>
      <point x="1033.7766790658898" y="546.1006884307145" type="line"/>
    </contour>
    <contour>
      <point x="972.5186043981369" y="465.937406861158" type="line"/>
      <point x="795.0984419306202" y="699.9261118235984" type="line"/>
      <point x="766.8141706831583" y="671.6418405761365" type="line"/>
      <point x="1000.8028756455988" y="494.2216781086199" type="line"/>
    </contour>
    <contour>
      <point x="939.5448009778457" y="414.0583965390634" type="line"/>
      <point x="766.1820172207775" y="643.9897227910553" type="line"/>
      <point x="737.8977459733156" y="615.7054515435934" type="line"/>
      <point x="967.8290722253076" y="442.3426677865253" type="line"/>
    </contour>
    <contour>
      <point x="906.5709975575547" y="362.17938621696874" type="line"/>
      <point x="737.2655925109349" y="588.0533337585123" type="line"/>
      <point x="708.981321263473" y="559.7690625110504" type="line"/>
      <point x="934.8552688050166" y="390.46365746443064" type="line"/>
    </contour>
    <contour>
      <point x="873.5971941372636" y="310.30037589487415" type="line"/>
      <point x="708.3491678010922" y="532.1169447259693" type="line"/>
      <point x="680.0648965536303" y="503.83267347850744" type="line"/>
      <point x="901.8814653847255" y="338.58464714233605" type="line"/>
    </contour>
    <contour>
      <point x="485.5391139424298" y="698.3584560897077" type="line"/>
      <point x="426.32457787230595" y="814.1415346547554" type="line"/>
      <point x="398.04030662484405" y="785.8572634072935" type="line"/>
      <point x="513.8233851898917" y="726.6427273371696" type="line"/>
    </contour>
    <contour>
      <point x="840.6226836101913" y="258.4220726795606" type="line"/>
      <point x="679.4327430912496" y="476.1805556934262" type="line"/>
      <point x="651.1484718437877" y="447.8962844459643" type="line"/>
      <point x="868.9069548576532" y="286.7063439270225" type="line"/>
    </contour>
    <contour>
      <point x="597.0123766761455" y="502.0323796136063" type="line"/>
      <point x="341.47176412992025" y="814.1415346547552" type="line"/>
      <point x="313.18749288245834" y="785.8572634072933" type="line"/>
      <point x="625.2966479236075" y="530.3166508610682" type="line"/>
    </contour>
    <contour>
      <point x="807.6488801899003" y="206.543062357466" type="line"/>
      <point x="256.61895038753454" y="814.1415346547552" type="line"/>
      <point x="228.33467914007264" y="785.8572634072933" type="line"/>
      <point x="835.9331514373622" y="234.8273336049279" type="line"/>
    </contour>
    <contour>
      <point x="800.8578266633848" y="128.4813021415959" type="line"/>
      <point x="171.7661366451489" y="814.1415346547553" type="line"/>
      <point x="143.481865397687" y="785.8572634072934" type="line"/>
      <point x="829.1420979108467" y="156.7655733890578" type="line"/>
    </contour>
    <contour>
      <point x="800.8578266633848" y="43.6284883992102" type="line"/>
      <point x="86.91332290276317" y="814.1415346547552" type="line"/>
      <point x="58.62905165530128" y="785.8572634072933" type="line"/>
      <point x="829.1420979108467" y="71.9127596466721" type="line"/>
    </contour>
    <contour>
      <point x="773.77563694394" y="-14.142135623730784" type="line"/>
      <point x="90.09813184522737" y="726.1039119699053" type="line"/>
      <point x="61.81386059776548" y="697.8196407224434" type="line"/>
      <point x="802.0599081914019" y="14.142135623731129" type="line"/>
    </contour>
    <contour>
      <point x="688.9228232015543" y="-14.14213562373084" type="line"/>
      <point x="238.0969953611342" y="493.25223471161286" type="line"/>
      <point x="209.8127241136723" y="464.96796346415096" type="line"/>
      <point x="717.2070944490162" y="14.142135623731072" type="line"/>
    </contour>
    <contour>
      <point x="604.0700094591685" y="-14.14213562373084" type="line"/>
      <point x="386.095858877041" y="260.40055745332046" type="line"/>
      <point x="357.8115876295791" y="232.11628620585853" type="line"/>
      <point x="632.3542807066304" y="14.142135623731072" type="line"/>
    </contour>
    <contour>
      <point x="519.2171957167828" y="-14.14213562373084" type="line"/>
      <point x="409.14188308947297" y="152.50171949850278" type="line"/>
      <point x="380.85761184201107" y="124.21744825104088" type="line"/>
      <point x="547.5014669642447" y="14.142135623731072" type="line"/>
    </contour>
  </outline>
</glyph>
<glyph name="y_angle_90_step_20" format="2">
  <advance width="1210"/>
  <outline>
    <contour>
      <point x="109.99999999999996" y="800.0" type="line"/>
      <point x="69.99999999999996" y="689.867" type="line"/>
      <point x="109.99999999999996" y="689.867" type="line"/>
      <point x="69.99999999999996" y="800.0" type="line"/>
    </contour>
    <contour>
      <point x="129.99999999999994" y="800.0" type="line"/>
      <point x="89.99999999999996" y="658.4" type="line"/>
      <point x="129.99999999999994" y="658.4" type="line"/>
      <point x="89.99999999999996" y="800.0" type="line"/>
    </contour>
    <contour>
      <point x="149.99999999999994" y="800.0" type="line"/>
      <point x="109.99999999999997" y="626.933" type="line"/>
      <point x="149.99999999999997" y="626.933" type="line"/>
      <point x="109.99999999999994" y="800.0" type="line"/>
    </contour>
    <contour>
      <point x="169.99999999999994" y="800.0" type="line"/>
      <point x="129.99999999999997" y="595.467" type="line"/>
      <point x="169.99999999999997" y="595.467" type="line"/>
      <point x="129.99999999999994" y="800.0" type="line"/>
    </contour>
    <contour>
      <point x="189.99999999999994" y="800.0" type="line"/>
      <point x="149.99999999999997" y="564.0" type="line"/>
      <point x="189.99999999999997" y="564.0" type="line"/>
      <point x="149.99999999999994" y="800.0" type="line"/>
    </contour>
    <contour>
      <point x="209.99999999999994" y="800.0" type="line"/>
      <point x="169.99999999999997" y="532.533" type="line"/>
      <point x="209.99999999999997" y="532.533" type="line"/>
      <point x="169.99999999999994" y="800.0" type="line"/>
    </contour>
    <contour>
      <point x="229.99999999999994" y="800.0" type="line"/>
      <point x="189.99999999999997" y="501.067" type="line"/>
      <point x="229.99999999999997" y="501.067" type="line"/>
      <point x="189.99999999999994" y="800.0" type="line"/>
    </contour>
    <contour>
      <point x="249.99999999999994" y="800.0" type="line"/>
      <point x="209.99999999999997" y="469.6" type="line"/>
      <point x="249.99999999999997" y="469.6" type="line"/>
      <point x="209.99999999999994" y="800.0" type="line"/>
    </contour>
    <contour>
      <point x="269.99999999999994" y="800.0" type="line"/>
      <point x="229.99999999999997" y="438.133" type="line"/>
      <point x="270.0" y="438.133" type="line"/>
      <point x="229.99999999999994" y="800.0" type="line"/>
    </contour>
    <contour>
      <point x="289.99999999999994" y="800.0" type="line"/>
      <point x="250.0" y="406.667" type="line"/>
      <point x="290.0" y="406.667" type="line"/>
      <point x="249.99999999999994" y="800.0" type="line"/>
    </contour>
    <contour>
      <point x="309.99999999999994" y="800.0" type="line"/>
      <point x="270.0" y="375.2" type="line"/>
      <point x="310.0" y="375.2" type="line"/>
      <point x="269.99999999999994" y="800.0" type="line"/>
    </contour>
    <contour>
      <point x="329.99999999999994" y="800.0" type="line"/>
      <point x="290.0" y="343.733" type="line"/>
      <point x="330.0" y="343.733" type="line"/>
      <point x="289.99999999999994" y="800.0" type="line"/>
    </contour>
    <contour>
      <point x="349.99999999999994" y="800.0" type="line"/>
      <point x="310.0" y="312.267" type="line"/>
      <point x="350.0" y="312.267" type="line"/>
      <point x="309.99999999999994" y="800.0" type="line"/>
    </contour>
    <contour>
      <point x="369.99999999999994" y="800.0" type="line"/>
      <point x="330.0" y="280.8" type="line"/>
      <point x="370.0" y="280.8" type="line"/>
      <point x="329.99999999999994" y="800.0" type="line"/>
    </contour>
    <contour>
      <point x="389.99999999999994" y="800.0" type="line"/>
      <point x="350.0" y="249.33300000000003" type="line"/>
      <point x="390.0" y="249.33300000000003" type="line"/>
      <point x="349.99999999999994" y="800.0" type="line"/>
    </contour>
    <contour>
      <point x="409.99999999999994" y="800.0" type="line"/>
      <point x="370.0" y="217.86700000000002" type="line"/>
      <point x="410.0" y="217.86700000000002" type="line"/>
      <point x="369.99999999999994" y="800.0" type="line"/>
    </contour>
    <contour>
      <point x="429.99999999999994" y="800.0" type="line"/>
      <point x="390.0" y="2.7554552980815446e-14" type="line"/>
      <point x="430.0" y="2.510525938252074e-14" type="line"/>
      <point x="389.99999999999994" y="800.0" type="line"/>
    </contour>
    <contour>
      <point x="449.99999999999994" y="800.0" type="line"/>
      <point x="410.0" y="2.8779199779962804e-14" type="line"/>
      <point x="450.0" y="2.6329906181668095e-14" type="line"/>
      <point x="409.99999999999994" y="800.0" type="line"/>
    </contour>
    <contour>
      <point x="469.99999999999994" y="800.0" type="line"/>
      <point x="430.0" y="3.0003846579110155e-14" type="line"/>
      <point x="470.0" y="2.7554552980815446e-14" type="line"/>
      <point x="429.99999999999994" y="800.0" type="line"/>
    </contour>
    <contour>
      <point x="489.99999999999994" y="764.776" type="line"/>
      <point x="450.0" y="3.122849337825751e-14" type="line"/>
      <point x="490.0" y="2.87791997799628e-14" type="line"/>
      <point x="449.99999999999994" y="764.776" type="line"/>
    </contour>
    <contour>
      <point x="509.99999999999994" y="729.552" type="line"/>
      <point x="470.0" y="3.2453140177404865e-14" type="line"/>
      <point x="510.0" y="3.0003846579110155e-14" type="line"/>
      <point x="469.99999999999994" y="729.552" type="line"/>
    </contour>
    <contour>
      <point x="530.0" y="694.328" type="line"/>
      <point x="490.0" y="3.3677786976552216e-14" type="line"/>
      <point x="530.0" y="3.122849337825751e-14" type="line"/>
      <point x="489.99999999999994" y="694.328" type="line"/>
    </contour>
    <contour>
      <point x="550.0" y="659.104" type="line"/>
      <point x="510.0" y="3.490243377569957e-14" type="line"/>
      <point x="550.0" y="3.245314017740486e-14" type="line"/>
      <point x="510.0" y="659.104" type="line"/>
    </contour>
    <contour>
      <point x="570.0" y="623.881" type="line"/>
      <point x="530.0" y="3.6127080574846926e-14" type="line"/>
      <point x="570.0" y="3.3677786976552216e-14" type="line"/>
      <point x="530.0" y="623.881" type="line"/>
    </contour>
    <contour>
      <point x="590.0" y="588.657" type="line"/>
      <point x="550.0" y="3.735172737399428e-14" type="line"/>
      <point x="590.0" y="3.490243377569957e-14" type="line"/>
      <point x="550.0" y="588.657" type="line"/>
    </contour>
    <contour>
      <point x="610.0" y="553.433" type="line"/>
      <point x="570.0" y="3.857637417314163e-14" type="line"/>
      <point x="610.0" y="3.612708057484692e-14" type="line"/>
      <point x="570.0" y="553.433" type="line"/>
    </contour>
    <contour>
      <point x="630.0" y="518.209" type="line"/>
      <point x="590.0" y="3.980102097228898e-14" type="line"/>
      <point x="630.0" y="3.735172737399427e-14" type="line"/>
      <point x="590.0" y="518.209" type="line"/>
    </contour>
    <contour>
      <point x="650.0" y="482.98500000000007" type="line"/>
      <point x="610.0" y="4.102566777143634e-14" type="line"/>
      <point x="650.0" y="3.857637417314163e-14" type="line"/>
      <point x="610.0" y="482.98500000000007" type="line"/>
    </contour>
    <contour>
      <point x="670.0" y="447.7610000000001" type="line"/>
      <point x="630.0" y="4.225031457058369e-14" type="line"/>
      <point x="670.0" y="3.980102097228898e-14" type="line"/>
      <point x="630.0" y="447.7610000000001" type="line"/>
    </contour>
    <contour>
      <point x="690.0" y="471.1480000000001" type="line"/>
      <point x="650.0" y="4.347496136973104e-14" type="line"/>
      <point x="690.0" y="4.102566777143633e-14" type="line"/>
      <point x="650.0" y="471.1480000000001" type="line"/>
    </contour>
    <contour>
      <point x="710.0" y="509.83600000000007" type="line"/>
      <point x="670.0" y="4.469960816887839e-14" type="line"/>
      <point x="710.0" y="4.225031457058368e-14" type="line"/>
      <point x="670.0" y="509.83600000000007" type="line"/>
    </contour>
    <contour>
      <point x="730.0" y="548.525" type="line"/>
      <point x="690.0" y="4.592425496802575e-14" type="line"/>
      <point x="730.0" y="4.347496136973104e-14" type="line"/>
      <point x="690.0" y="548.525" type="line"/>
    </contour>
    <contour>
      <point x="750.0" y="587.213" type="line"/>
      <point x="710.0" y="4.71489017671731e-14" type="line"/>
      <point x="750.0" y="4.469960816887839e-14" type="line"/>
      <point x="710.0" y="587.213" type="line"/>
    </contour>
    <contour>
      <point x="770.0" y="625.902" type="line"/>
      <point x="730.0" y="4.837354856632045e-14" type="line"/>
      <point x="770.0" y="4.5924254968025744e-14" type="line"/>
      <point x="730.0" y="625.902" type="line"/>
    </contour>
    <contour>
      <point x="790.0" y="664.59" type="line"/>
      <point x="750.0" y="4.959819536546781e-14" type="line"/>
      <point x="790.0" y="4.71489017671731e-14" type="line"/>
      <point x="750.0" y="664.59" type="line"/>
    </contour>
    <contour>
      <point x="810.0" y="703.279" type="line"/>
      <point x="770.0" y="5.082284216461516e-14" type="line"/>
      <point x="810.0" y="4.837354856632045e-14" type="line"/>
      <point x="770.0" y="703.279" type="line"/>
    </contour>
    <contour>
      <point x="830.0" y="741.967" type="line"/>
      <point x="790.0" y="5.2047488963762514e-14" type="line"/>
      <point x="830.0" y="4.9598195365467804e-14" type="line"/>
      <point x="790.0" y="741.967" type="line"/>
    </contour>
    <contour>
      <point x="850.0" y="780.656" type="line"/>
      <point x="810.0" y="233.60000000000005" type="line"/>
      <point x="850.0" y="233.60000000000005" type="line"/>
      <point x="810.0" y="780.656" type="line"/>
    </contour>
    <contour>
      <point x="870.0" y="800.0" type="line"/>
      <point x="830.0" y="265.06700000000006" type="line"/>
      <point x="870.0" y="265.06700000000006" type="line"/>
      <point x="830.0" y="800.0" type="line"/>
    </contour>
    <contour>
      <point x="890.0" y="800.0" type="line"/>
      <point x="850.0" y="296.5330000000001" type="line"/>
      <point x="890.0" y="296.5330000000001" type="line"/>
      <point x="850.0" y="800.0" type="line"/>
    </contour>
    <contour>
      <point x="910.0" y="800.0" type="line"/>
      <point x="870.0" y="328.00000000000006" type="line"/>
      <point x="910.0" y="328.00000000000006" type="line"/>
      <point x="870.0" y="800.0" type="line"/>
    </contour>
    <contour>
      <point x="930.0" y="800.0" type="line"/>
      <point x="890.0" y="359.46700000000004" type="line"/>
      <point x="930.0" y="359.46700000000004" type="line"/>
      <point x="890.0" y="800.0" type="line"/>
    </contour>
    <contour>
      <point x="950.0" y="800.0000000000001" type="line"/>
      <point x="910.0" y="390.93300000000005" type="line"/>
      <point x="950.0" y="390.93300000000005" type="line"/>
      <point x="910.0" y="800.0000000000001" type="line"/>
    </contour>
    <contour>
      <point x="970.0" y="800.0000000000001" type="line"/>
      <point x="930.0" y="422.40000000000003" type="line"/>
      <point x="970.0" y="422.40000000000003" type="line"/>
      <point x="930.0" y="800.0000000000001" type="line"/>
    </contour>
    <contour>
      <point x="990.0" y="800.0000000000001" type="line"/>
      <point x="950.0" y="453.8670000000001" type="line"/>
      <point x="990.0" y="453.8670000000001" type="line"/>
      <point x="950.0" y="800.0000000000001" type="line"/>
    </contour>
    <contour>
      <point x="1010.0" y="800.0000000000001" type="line"/>
      <point x="970.0" y="485.3330000000001" type="line"/>
      <point x="1010.0" y="485.3330000000001" type="line"/>
      <point x="970.0" y="800.0000000000001" type="line"/>
    </contour>
    <contour>
      <point x="1030.0" y="800.0000000000001" type="line"/>
      <point x="990.0" y="516.8000000000001" type="line"/>
      <point x="1030.0" y="516.8000000000001" type="line"/>
      <point x="990.0" y="800.0000000000001" type="line"/>
    </contour>
    <contour>
      <point x="1050.0" y="800.0000000000001" type="line"/>
      <point x="1010.0" y="548.2670000000002" type="line"/>
      <point x="1050.0" y="548.2670000000002" type="line"/>
      <point x="1010.0" y="800.0000000000001" type="line"/>
    </contour>
    <contour>
      <point x="1070.0" y="800.0000000000001" type="line"/>
      <point x="1030.0" y="579.7330000000001" type="line"/>
      <point x="1070.0" y="579.7330000000001" type="line"/>
      <point x="1030.0" y="800.0000000000001" type="line"/>
    </contour>
    <contour>
      <point x="1090.0" y="800.0000000000001" type="line"/>
      <point x="1050.0" y="611.2000000000002" type="line"/>
      <point x="1090.0" y="611.2000000000002" type="line"/>
      <point x="1050.0" y="800.0000000000001" type="line"/>
    </contour>
    <contour>
      <point x="1110.0" y="800.0000000000001" type="line"/>
      <point x="1070.0" y="642.6670000000001" type="line"/>
      <point x="1110.0" y="642.6670000000001" type="line"/>
      <point x="1070.0" y="800.0000000000001" type="line"/>
    </contour>
    <contour>
      <point x="1130.0" y="800.0000000000001" type="line"/>
      <point x="1090.0" y="674.1330000000002" type="line"/>
      <point x="1130.0" y="674.1330000000002" type="line"/>
      <point x="1090.0" y="800.0000000000001" type="line"/>
    </contour>
    <contour>
      <point x="1150.0" y="800.0000000000001" type="line"/>
      <point x="1110.0" y="705.6000000000001" type="line"/>
      <point x="1150.0" y="705.6000000000001" type="line"/>
      <point x="1110.0" y="800.0000000000001" type="line"/>
    </contour>
  </outline>
</glyph>
<glyph name="y_angle_90_step_80" format="2">
  <advance width="1210"/>
  <outline>
    <contour>
      <point x="149.99999999999994" y="800.0" type="line"/>
      <point x="109.99999999999997" y="626.933" type="line"/>
      <point x="149.99999999999997" y="626.933" type="line"/>
      <point x="109.99999999999994" y="800.0" type="line"/>
    </contour>
    <contour>
      <point x="229.99999999999994" y="800.0" type="line"/>
      <point x="189.99999999999997" y="501.067" type="line"/>
      <point x="229.99999999999997" y="501.067" type="line"/>
      <point x="189.99999999999994" y="800.0" type="line"/>
    </contour>
    <contour>
      <point x="309.99999999999994" y="800.0" type="line"/>
      <point x="270.0" y="375.2" type="line"/>
      <point x="310.0" y="375.2" type="line"/>
      <point x="269.99999999999994" y="800.0" type="line"/>
    </contour>
    <contour>
      <point x="389.99999999999994" y="800.0" type="line"/>
      <point x="350.0" y="249.33300000000003" type="line"/>
      <point x="390.0" y="249.33300000000003" type="line"/>
      <point x="349.99999999999994" y="800.0" type="line"/>
    </contour>
    <contour>
      <point x="469.99999999999994" y="800.0" type="line"/>
      <point x="430.0" y="3.0003846579110155e-14" type="line"/>
      <point x="470.0" y="2.7554552980815446e-14" type="line"/>
      <point x="429.99999999999994" y="800.0" type="line"/>
    </contour>
    <contour>
      <point x="550.0" y="659.104" type="line"/>
      <point x="510.0" y="3.490243377569957e-14" type="line"/>
      <point x="550.0" y="3.245314017740486e-14" type="line"/>
      <point x="510.0" y="659.104" type="line"/>
    </contour>
    <contour>
      <point x="630.0" y="518.209" type="line"/>
      <point x="590.0" y="3.980102097228898e-14" type="line"/>
      <point x="630.0" y="3.735172737399427e-14" type="line"/>
      <point x="590.0" y="518.209" type="line"/>
    </contour>
    <contour>
      <point x="710.0" y="509.83600000000007" type="line"/>
      <point x="670.0" y="4.469960816887839e-14" type="line"/>
      <point x="710.0" y="4.225031457058368e-14" type="line"/>
      <point x="670.0" y="509.83600000000007" type="line"/>
    </contour>
    <contour>
      <point x="790.0" y="664.59" type="line"/>
      <point x="750.0" y="4.959819536546781e-14" type="line"/>
      <point x="790.0" y="4.71489017671731e-14" type="line"/>
      <point x="750.0" y="664.59" type="line"/>
    </contour>
    <contour>
      <point x="870.0" y="800.0" type="line"/>
      <point x="830.0" y="265.06700000000006" type="line"/>
      <point x="870.0" y="265.06700000000006" type="line"/>
      <point x="830.0" y="800.0" type="line"/>
    </contour>
    <contour>
      <point x="950.0" y="800.0000000000001" type="line"/>
      <point x="910.0" y="390.93300000000005" type="line"/>
      <point x="950.0" y="390.93300000000005" type="line"/>
      <point x="910.0" y="800.0000000000001" type="line"/>
    </contour>
    <contour>
      <point x="1030.0" y="800.0000000000001" type="line"/>
      <point x="990.0" y="516.8000000000001" type="line"/>
      <point x="1030.0" y="516.8000000000001" type="line"/>
      <point x="990.0" y="800.0000000000001" type="line"/>
    </contour>
    <contour>
      <point x="1110.0" y="800.0000000000001" type="line"/>
      <point x="1070.0" y="642.6670000000001" type="line"/>
      <point x="1110.0" y="642.6670000000001" type="line"/>
      <point x="1070.0" y="800.0000000000001" type="line"/>
    </contour>
  </outline>
</glyph>
<glyph name="z_angle_0_step_20" format="2">
  <advance width="1280"/>
  <outline>
    <contour>
      <point x="60.0" y="30.0" type="line"/>
      <point x="1220.0" y="-10.0" type="line"/>
      <point x="1220.0" y="30.0" type="line"/>
      <point x="59.99999999999999" y="-10.0" type="line"/>
    </contour>
    <contour>
      <point x="60.0" y="50.0" type="line"/>
      <point x="1220.0" y="10.0" type="line"/>
      <point x="1220.0" y="50.0" type="line"/>
      <point x="59.99999999999999" y="10.0" type="line"/>
    </contour>
    <contour>
      <point x="60.0" y="70.0" type="line"/>
      <point x="1220.0" y="30.0" type="line"/>
      <point x="1220.0" y="70.0" type="line"/>
      <point x="59.99999999999999" y="30.0" type="line"/>
    </contour>
    <contour>
      <point x="60.0" y="90.0" type="line"/>
      <point x="1220.0" y="50.0" type="line"/>
      <point x="1220.0" y="90.0" type="line"/>
      <point x="59.99999999999999" y="50.0" type="line"/>
    </contour>
    <contour>
      <point x="60.0" y="110.0" type="line"/>
      <point x="1220.0" y="70.0" type="line"/>
      <point x="1220.0" y="110.0" type="line"/>
      <point x="59.99999999999999" y="70.0" type="line"/>
    </contour>
    <contour>
      <point x="60.0" y="130.0" type="line"/>
      <point x="1220.0" y="90.0" type="line"/>
      <point x="1220.0" y="130.0" type="line"/>
      <point x="59.99999999999999" y="90.0" type="line"/>
    </contour>
    <contour>
      <point x="60.0" y="150.0" type="line"/>
      <point x="1220.0" y="110.0" type="line"/>
      <point x="1220.0" y="150.0" type="line"/>
      <point x="59.99999999999999" y="110.0" type="line"/>
    </contour>
    <contour>
      <point x="60.0" y="170.0" type="line"/>
      <point x="1220.0" y="130.0" type="line"/>
      <point x="1220.0" y="170.0" type="line"/>
      <point x="59.99999999999999" y="130.0" type="line"/>
    </contour>
    <contour>
      <point x="60.0" y="190.0" type="line"/>
      <point x="1220.0" y="150.0" type="line"/>
      <point x="1220.0" y="190.0" type="line"/>
      <point x="59.99999999999999" y="150.0" type="line"/>
    </contour>
    <contour>
      <point x="60.0" y="210.0" type="line"/>
      <point x="1220.0" y="170.0" type="line"/>
      <point x="1220.0" y="210.0" type="line"/>
      <point x="59.99999999999999" y="170.0" type="line"/>
    </contour>
    <contour>
      <point x="60.0" y="230.0" type="line"/>
      <point x="1220.0" y="190.0" type="line"/>
      <point x="1220.0" y="230.0" type="line"/>
      <point x="59.99999999999999" y="190.0" type="line"/>
    </contour>
    <contour>
      <point x="60.0" y="270.0" type="line"/>
      <point x="1220.0" y="230.0" type="line"/>
      <point x="1220.0" y="270.0" type="line"/>
      <point x="59.99999999999999" y="230.0" type="line"/>
    </contour>
    <contour>
      <point x="60.0" y="290.0" type="line"/>
      <point x="1220.0" y="250.0" type="line"/>
      <point x="1220.0" y="290.0" type="line"/>
      <point x="59.99999999999999" y="250.0" type="line"/>
    </contour>
    <contour>
      <point x="78.824" y="310.0" type="line"/>
      <point x="787.059" y="270.0" type="line"/>
      <point x="787.059" y="310.0" type="line"/>
      <point x="78.824" y="270.0" type="line"/>
    </contour>
    <contour>
      <point x="116.471" y="330.0" type="line"/>
      <point x="824.706" y="290.0" type="line"/>
      <point x="824.706" y="330.0" type="line"/>
      <point x="116.471" y="290.0" type="line"/>
    </contour>
    <contour>
      <point x="154.118" y="350.0" type="line"/>
      <point x="862.353" y="310.0" type="line"/>
      <point x="862.353" y="350.0" type="line"/>
      <point x="154.118" y="310.0" type="line"/>
    </contour>
    <contour>
      <point x="191.765" y="370.0" type="line"/>
      <point x="900.0" y="330.0" type="line"/>
      <point x="900.0" y="370.0" type="line"/>
      <point x="191.765" y="330.0" type="line"/>
    </contour>
    <contour>
      <point x="229.412" y="390.0" type="line"/>
      <point x="937.647" y="350.0" type="line"/>
      <point x="937.647" y="390.0" type="line"/>
      <point x="229.412" y="350.0" type="line"/>
    </contour>
    <contour>
      <point x="267.059" y="410.0" type="line"/>
      <point x="975.294" y="370.0" type="line"/>
      <point x="975.294" y="410.0" type="line"/>
      <point x="267.059" y="370.0" type="line"/>
    </contour>
    <contour>
      <point x="304.706" y="430.0" type="line"/>
      <point x="1012.941" y="390.0" type="line"/>
      <point x="1012.941" y="430.0" type="line"/>
      <point x="304.706" y="390.0" type="line"/>
    </contour>
    <contour>
      <point x="342.353" y="450.0" type="line"/>
      <point x="1050.588" y="410.0" type="line"/>
      <point x="1050.588" y="450.0" type="line"/>
      <point x="342.353" y="410.0" type="line"/>
    </contour>
    <contour>
      <point x="380.0" y="470.0" type="line"/>
      <point x="1088.235" y="430.0" type="line"/>
      <point x="1088.235" y="470.0" type="line"/>
      <point x="380.0" y="430.0" type="line"/>
    </contour>
    <contour>
      <point x="455.294" y="510.0" type="line"/>
      <point x="1163.529" y="470.0" type="line"/>
      <point x="1163.529" y="510.0" type="line"/>
      <point x="455.294" y="470.0" type="line"/>
    </contour>
    <contour>
      <point x="492.941" y="530.0" type="line"/>
      <point x="1201.176" y="490.0" type="line"/>
      <point x="1201.176" y="530.0" type="line"/>
      <point x="492.941" y="490.0" type="line"/>
    </contour>
    <contour>
      <point x="60.0" y="550.0" type="line"/>
      <point x="1220.0" y="510.0" type="line"/>
      <point x="1220.0" y="550.0" type="line"/>
      <point x="59.99999999999999" y="510.0" type="line"/>
    </contour>
    <contour>
      <point x="60.0" y="570.0" type="line"/>
      <point x="1220.0" y="530.0" type="line"/>
      <point x="1220.0" y="570.0" type="line"/>
      <point x="59.99999999999999" y="530.0" type="line"/>
    </contour>
    <contour>
      <point x="60.0" y="590.0" type="line"/>
      <point x="1220.0" y="550.0" type="line"/>
      <point x="1220.0" y="590.0" type="line"/>
      <point x="59.99999999999999" y="550.0" type="line"/>
    </contour>
    <contour>
      <point x="60.0" y="610.0" type="line"/>
      <point x="1220.0" y="570.0" type="line"/>
      <point x="1220.0" y="610.0" type="line"/>
      <point x="59.99999999999999" y="570.0" type="line"/>
    </contour>
    <contour>
      <point x="60.0" y="630.0" type="line"/>
      <point x="1220.0" y="590.0" type="line"/>
      <point x="1220.0" y="630.0" type="line"/>
      <point x="59.99999999999999" y="590.0" type="line"/>
    </contour>
    <contour>
      <point x="60.0" y="650.0" type="line"/>
      <point x="1220.0" y="610.0" type="line"/>
      <point x="1220.0" y="650.0" type="line"/>
      <point x="59.99999999999999" y="610.0" type="line"/>
    </contour>
    <contour>
      <point x="60.0" y="670.0" type="line"/>
      <point x="1220.0" y="630.0" type="line"/>
      <point x="1220.0" y="670.0" type="line"/>
      <point x="59.99999999999999" y="630.0" type="line"/>
    </contour>
    <contour>
      <point x="60.0" y="690.0" type="line"/>
      <point x="1220.0" y="650.0" type="line"/>
      <point x="1220.0" y="690.0" type="line"/>
      <point x="59.99999999999999" y="650.0" type="line"/>
    </contour>
    <contour>
      <point x="60.0" y="710.0" type="line"/>
      <point x="1220.0" y="670.0" type="line"/>
      <point x="1220.0" y="710.0" type="line"/>
      <point x="59.99999999999999" y="670.0" type="line"/>
    </contour>
    <contour>
      <point x="60.0" y="730.0" type="line"/>
      <point x="1220.0" y="690.0" type="line"/>
      <point x="1220.0" y="730.0" type="line"/>
      <point x="59.99999999999999" y="690.0" type="line"/>
    </contour>
    <contour>
      <point x="60.0" y="750.0" type="line"/>
      <point x="1220.0" y="710.0" type="line"/>
      <point x="1220.0" y="750.0" type="line"/>
      <point x="59.99999999999999" y="710.0" type="line"/>
    </contour>
    <contour>
      <point x="60.0" y="790.0" type="line"/>
      <point x="1220.0" y="750.0" type="line"/>
      <point x="1220.0" y="790.0" type="line"/>
      <point x="59.99999999999999" y="750.0" type="line"/>
    </contour>
    <contour>
      <point x="60.0" y="810.0" type="line"/>
      <point x="1220.0" y="770.0" type="line"/>
      <point x="1220.0" y="810.0" type="line"/>
      <point x="59.99999999999999" y="770.0" type="line"/>
    </contour>
  </outline>
</glyph>
<glyph name="z_angle_135_step_20" format="2">
  <advance width="1280"/>
  <outline>
    <contour>
      <point x="144.85294544640772" y="785.8579705140745" type="line"/>
      <point x="45.85799608029106" y="743.4315636428817" type="line"/>
      <point x="74.14226732775296" y="715.1472923954198" type="line"/>
      <point x="116.56867419894581" y="814.1422417615364" type="line"/>
    </contour>
    <contour>
      <point x="173.13721669386962" y="785.8579705140745" type="line"/>
      <point x="45.85799608029106" y="715.1472923954198" type="line"/>
      <point x="74.14226732775296" y="686.8630211479579" type="line"/>
      <point x="144.85294544640772" y="814.1422417615364" type="line"/>
    </contour>
    <contour>
      <point x="201.42148794133152" y="785.8579705140745" type="line"/>
      <point x="45.85799608029106" y="686.8630211479579" type="line"/>
      <point x="74.14226732775296" y="658.578749900496" type="line"/>
      <point x="173.13721669386962" y="814.1422417615364" type="line"/>
    </contour>
    <contour>
      <point x="229.70575918879342" y="785.8579705140745" type="line"/>
      <point x="45.85799608029112" y="658.5787499004961" type="line"/>
      <point x="74.14226732775302" y="630.2944786530342" type="line"/>
      <point x="201.42148794133152" y="814.1422417615364" type="line"/>
    </contour>
    <contour>
      <point x="257.9900304362553" y="785.8579705140745" type="line"/>
      <point x="45.85799608029112" y="630.2944786530342" type="line"/>
      <point x="74.14226732775302" y="602.0102074055723" type="line"/>
      <point x="229.70575918879342" y="814.1422417615364" type="line"/>
    </contour>
    <contour>
      <point x="286.2743016837172" y="785.8579705140745" type="line"/>
      <point x="45.85799608029112" y="602.0102074055723" type="line"/>
      <point x="74.14226732775302" y="573.7259361581104" type="line"/>
      <point x="257.9900304362553" y="814.1422417615364" type="line"/>
    </contour>
    <contour>
      <point x="314.5585729311791" y="785.8579705140745" type="line"/>
      <point x="45.857996080291144" y="573.7259361581104" type="line"/>
      <point x="74.14226732775305" y="545.4416649106485" type="line"/>
      <point x="286.2743016837172" y="814.1422417615364" type="line"/>
    </contour>
    <contour>
      <point x="342.84284417864103" y="785.8579705140745" type="line"/>
      <point x="45.857996080291144" y="545.4416649106485" type="line"/>
      <point x="74.14226732775305" y="517.1573936631866" type="line"/>
      <point x="314.5585729311791" y="814.1422417615364" type="line"/>
    </contour>
    <contour>
      <point x="371.12711542610293" y="785.8579705140745" type="line"/>
      <point x="62.84270096439198" y="534.1420985472873" type="line"/>
      <point x="91.12697221185388" y="505.85782729982543" type="line"/>
      <point x="342.84284417864103" y="814.1422417615364" type="line"/>
    </contour>
    <contour>
      <point x="399.41138667356483" y="785.8579705140745" type="line"/>
      <point x="91.12697221185388" y="534.1420985472873" type="line"/>
      <point x="119.41124345931578" y="505.85782729982543" type="line"/>
      <point x="371.12711542610293" y="814.1422417615364" type="line"/>
    </contour>
    <contour>
      <point x="427.69565792102674" y="785.8579705140745" type="line"/>
      <point x="119.41124345931578" y="534.1420985472873" type="line"/>
      <point x="147.6955147067777" y="505.85782729982543" type="line"/>
      <point x="399.41138667356483" y="814.1422417615364" type="line"/>
    </contour>
    <contour>
      <point x="455.9799291684887" y="785.8579705140745" type="line"/>
      <point x="147.69551470677771" y="534.1420985472873" type="line"/>
      <point x="175.97978595423962" y="505.85782729982543" type="line"/>
      <point x="427.6956579210268" y="814.1422417615364" type="line"/>
    </contour>
    <contour>
      <point x="484.2642004159506" y="785.8579705140745" type="line"/>
      <point x="175.97978595423962" y="534.1420985472873" type="line"/>
      <point x="204.26405720170152" y="505.85782729982543" type="line"/>
      <point x="455.9799291684887" y="814.1422417615364" type="line"/>
    </contour>
    <contour>
      <point x="512.5484716634126" y="785.8579705140745" type="line"/>
      <point x="204.26405720170146" y="534.1420985472872" type="line"/>
      <point x="232.54832844916336" y="505.8578272998253" type="line"/>
      <point x="484.2642004159506" y="814.1422417615364" type="line"/>
    </contour>
    <contour>
      <point x="540.8327429108743" y="785.8579705140745" type="line"/>
      <point x="232.54832844916336" y="534.1420985472872" type="line"/>
      <point x="260.83259969662527" y="505.8578272998253" type="line"/>
      <point x="512.5484716634124" y="814.1422417615364" type="line"/>
    </contour>
    <contour>
      <point x="569.1170141583362" y="785.8579705140745" type="line"/>
      <point x="260.83259969662527" y="534.1420985472872" type="line"/>
      <point x="289.11687094408717" y="505.8578272998253" type="line"/>
      <point x="540.8327429108743" y="814.1422417615364" type="line"/>
    </contour>
    <contour>
      <point x="597.4012854057981" y="785.8579705140745" type="line"/>
      <point x="289.11687094408717" y="534.1420985472872" type="line"/>
      <point x="317.40114219154907" y="505.8578272998253" type="line"/>
      <point x="569.1170141583362" y="814.1422417615364" type="line"/>
    </contour>
    <contour>
      <point x="625.68555665326" y="785.8579705140745" type="line"/>
      <point x="317.40114219154907" y="534.1420985472872" type="line"/>
      <point x="345.685413439011" y="505.8578272998253" type="line"/>
      <point x="597.4012854057981" y="814.1422417615364" type="line"/>
    </contour>
    <contour>
      <point x="141.43479126615205" y="301.60720512696645" type="line"/>
      <point x="45.85799608029115" y="262.5989524360293" type="line"/>
      <point x="74.14226732775306" y="234.31468118856742" type="line"/>
      <point x="113.15052001869013" y="329.89147637442835" type="line"/>
    </contour>
    <contour>
      <point x="653.969827900722" y="785.8579705140745" type="line"/>
      <point x="345.685413439011" y="534.1420985472872" type="line"/>
      <point x="373.9696846864729" y="505.8578272998253" type="line"/>
      <point x="625.68555665326" y="814.1422417615364" type="line"/>
    </contour>
    <contour>
      <point x="201.77433422514372" y="333.66247683849616" type="line"/>
      <point x="45.85799608029116" y="234.31468118856742" type="line"/>
      <point x="74.14226732775306" y="206.03040994110552" type="line"/>
      <point x="173.49006297768182" y="361.94674808595806" type="line"/>
    </contour>
    <contour>
      <point x="682.2540991481839" y="785.8579705140746" type="line"/>
      <point x="373.9696846864729" y="534.1420985472873" type="line"/>
      <point x="402.2539559339348" y="505.85782729982543" type="line"/>
      <point x="653.969827900722" y="814.1422417615365" type="line"/>
    </contour>
    <contour>
      <point x="262.1138771841354" y="365.71774855002593" type="line"/>
      <point x="45.85799608029115" y="206.03040994110555" type="line"/>
      <point x="74.14226732775305" y="177.74613869364364" type="line"/>
      <point x="233.8296059366735" y="394.00201979748783" type="line"/>
    </contour>
    <contour>
      <point x="710.5383703956458" y="785.8579705140746" type="line"/>
      <point x="402.2539559339348" y="534.1420985472873" type="line"/>
      <point x="430.5382271813967" y="505.85782729982543" type="line"/>
      <point x="682.2540991481839" y="814.1422417615365" type="line"/>
    </contour>
    <contour>
      <point x="322.4541272499082" y="397.7737273683369" type="line"/>
      <point x="45.85799608029115" y="177.74613869364364" type="line"/>
      <point x="74.14226732775305" y="149.46186744618174" type="line"/>
      <point x="294.1698560024463" y="426.0579986157988" type="line"/>
    </contour>
    <contour>
      <point x="738.8226416431077" y="785.8579705140746" type="line"/>
      <point x="430.5382271813967" y="534.1420985472873" type="line"/>
      <point x="458.8224984288586" y="505.85782729982543" type="line"/>
      <point x="710.5383703956458" y="814.1422417615365" type="line"/>
    </contour>
    <contour>
      <point x="382.79367020889987" y="429.82899907986666" type="line"/>
      <point x="45.85799608029115" y="149.46186744618174" type="line"/>
      <point x="74.14226732775305" y="121.17759619871984" type="line"/>
      <point x="354.50939896143797" y="458.11327032732856" type="line"/>
    </contour>
    <contour>
      <point x="767.1069128905696" y="785.8579705140746" type="line"/>
      <point x="458.8224984288586" y="534.1420985472873" type="line"/>
      <point x="487.1067696763205" y="505.85782729982543" type="line"/>
      <point x="738.8226416431077" y="814.1422417615365" type="line"/>
    </contour>
    <contour>
      <point x="443.1332131678915" y="461.8842707913964" type="line"/>
      <point x="45.85799608029116" y="121.17759619871984" type="line"/>
      <point x="74.14226732775306" y="92.89332495125794" type="line"/>
      <point x="414.8489419204296" y="490.1685420388583" type="line"/>
    </contour>
    <contour>
      <point x="795.3911841380315" y="785.8579705140746" type="line"/>
      <point x="487.1067696763205" y="534.1420985472873" type="line"/>
      <point x="515.3910409237824" y="505.85782729982543" type="line"/>
      <point x="767.1069128905696" y="814.1422417615365" type="line"/>
    </contour>
    <contour>
      <point x="503.47346323366435" y="493.9402496097074" type="line"/>
      <point x="45.85799608029116" y="92.89332495125794" type="line"/>
      <point x="74.14226732775306" y="64.60905370379604" type="line"/>
      <point x="475.18919198620245" y="522.2245208571693" type="line"/>
    </contour>
    <contour>
      <point x="823.6754553854934" y="785.8579705140746" type="line"/>
      <point x="45.85799608029116" y="64.60905370379604" type="line"/>
      <point x="74.14226732775306" y="36.324782456334134" type="line"/>
      <point x="795.3911841380315" y="814.1422417615365" type="line"/>
    </contour>
    <contour>
      <point x="851.9597266329553" y="785.8579705140746" type="line"/>
      <point x="45.85799608029116" y="36.324782456334134" type="line"/>
      <point x="74.14226732775306" y="8.040511208872237" type="line"/>
      <point x="823.6754553854934" y="814.1422417615365" type="line"/>
    </contour>
    <contour>
      <point x="880.2439978804172" y="785.8579705140746" type="line"/>
      <point x="51.95962049514989" y="14.142135623730958" type="line"/>
      <point x="80.2438917426118" y="-14.142135623730942" type="line"/>
      <point x="851.9597266329553" y="814.1422417615365" type="line"/>
    </contour>
    <contour>
      <point x="908.5282691278791" y="785.8579705140746" type="line"/>
      <point x="80.2438917426118" y="14.142135623730958" type="line"/>
      <point x="108.5281629900737" y="-14.142135623730942" type="line"/>
      <point x="880.2439978804172" y="814.1422417615365" type="line"/>
    </contour>
    <contour>
      <point x="936.812540375341" y="785.8579705140746" type="line"/>
      <point x="108.5281629900737" y="14.142135623730958" type="line"/>
      <point x="136.8124342375356" y="-14.142135623730942" type="line"/>
      <point x="908.5282691278791" y="814.1422417615365" type="line"/>
    </contour>
    <contour>
      <point x="965.0968116228029" y="785.8579705140746" type="line"/>
      <point x="136.81243423753557" y="14.142135623730965" type="line"/>
      <point x="165.09670548499747" y="-14.142135623730935" type="line"/>
      <point x="936.812540375341" y="814.1422417615365" type="line"/>
    </contour>
    <contour>
      <point x="993.3810828702648" y="785.8579705140746" type="line"/>
      <point x="165.09670548499747" y="14.142135623730965" type="line"/>
      <point x="193.38097673245937" y="-14.142135623730935" type="line"/>
      <point x="965.0968116228029" y="814.1422417615365" type="line"/>
    </contour>
    <contour>
      <point x="1021.6653541177267" y="785.8579705140746" type="line"/>
      <point x="193.38097673245943" y="14.142135623730965" type="line"/>
      <point x="221.66524797992133" y="-14.142135623730935" type="line"/>
      <point x="993.3810828702648" y="814.1422417615365" type="line"/>
    </contour>
    <contour>
      <point x="1049.9496253651887" y="785.8579705140746" type="line"/>
      <point x="221.6652479799213" y="14.14213562373098" type="line"/>
      <point x="249.9495192273832" y="-14.14213562373092" type="line"/>
      <point x="1021.6653541177267" y="814.1422417615365" type="line"/>
    </contour>
    <contour>
      <point x="1078.2338966126504" y="785.8579705140746" type="line"/>
      <point x="249.94951922738323" y="14.14213562373098" type="line"/>
      <point x="278.23379047484514" y="-14.14213562373092" type="line"/>
      <point x="1049.9496253651887" y="814.1422417615365" type="line"/>
    </contour>
    <contour>
      <point x="1106.5181678601125" y="785.8579705140746" type="line"/>
      <point x="278.23379047484514" y="14.14213562373098" type="line"/>
      <point x="306.51806172230704" y="-14.14213562373092" type="line"/>
      <point x="1078.2338966126506" y="814.1422417615365" type="line"/>
    </contour>
    <contour>
      <point x="1134.8024391075742" y="785.8579705140746" type="line"/>
      <point x="306.51806172230704" y="14.14213562373098" type="line"/>
      <point x="334.80233296976894" y="-14.14213562373092" type="line"/>
      <point x="1106.5181678601125" y="814.1422417615365" type="line"/>
    </contour>
    <contour>
      <point x="1163.0867103550363" y="785.8579705140746" type="line"/>
      <point x="334.80233296976894" y="14.14213562373098" type="line"/>
      <point x="363.08660421723084" y="-14.14213562373092" type="line"/>
      <point x="1134.8024391075744" y="814.1422417615365" type="line"/>
    </contour>
    <contour>
      <point x="1191.370981602498" y="785.8579705140746" type="line"/>
      <point x="363.08660421723073" y="14.14213562373098" type="line"/>
      <point x="391.37087546469263" y="-14.14213562373092" type="line"/>
      <point x="1163.0867103550363" y="814.1422417615365" type="line"/>
    </contour>
    <contour>
      <point x="1219.65525284996" y="785.8579705140746" type="line"/>
      <point x="391.37087546469263" y="14.14213562373098" type="line"/>
      <point x="419.65514671215453" y="-14.14213562373092" type="line"/>
      <point x="1191.3709816024982" y="814.1422417615365" type="line"/>
    </contour>
    <contour>
      <point x="1234.1424565829097" y="772.0609029995626" type="line"/>
      <point x="419.65514671215453" y="14.14213562373098" type="line"/>
      <point x="447.93941795961643" y="-14.14213562373092" type="line"/>
      <point x="1205.858185335448" y="800.3451742470245" type="line"/>
    </contour>
    <contour>
      <point x="1234.1424565829097" y="743.7766317521007" type="line"/>
      <point x="447.93941795961643" y="14.14213562373098" type="line"/>
      <point x="476.22368920707834" y="-14.14213562373092" type="line"/>
      <point x="1205.858185335448" y="772.0609029995626" type="line"/>
    </contour>
    <contour>
      <point x="1234.1424565829097" y="715.4923605046388" type="line"/>
      <point x="758.6386020790794" y="296.55704849573215" type="line"/>
      <point x="786.9228733265413" y="268.27277724827024" type="line"/>
      <point x="1205.858185335448" y="743.7766317521007" type="line"/>
    </contour>
    <contour>
      <point x="784.5081036687893" y="265.85800759051824" type="line"/>
      <point x="476.22368920707834" y="14.14213562373098" type="line"/>
      <point x="504.50796045454024" y="-14.14213562373092" type="line"/>
      <point x="756.2238324213274" y="294.14227883798014" type="line"/>
    </contour>
    <contour>
      <point x="1234.1424565829097" y="687.2080892571769" type="line"/>
      <point x="818.9781450380711" y="328.612320207262" type="line"/>
      <point x="847.262416285533" y="300.32804895980007" type="line"/>
      <point x="1205.858185335448" y="715.4923605046388" type="line"/>
    </contour>
    <contour>
      <point x="812.7923749162513" y="265.85800759051824" type="line"/>
      <point x="504.50796045454024" y="14.142135623731008" type="line"/>
      <point x="532.7922317020021" y="-14.142135623730892" type="line"/>
      <point x="784.5081036687894" y="294.14227883798014" type="line"/>
    </contour>
    <contour>
      <point x="1234.1424565829097" y="658.923818009715" type="line"/>
      <point x="879.3176879970628" y="360.6675919187917" type="line"/>
      <point x="907.6019592445247" y="332.3833206713298" type="line"/>
      <point x="1205.858185335448" y="687.2080892571769" type="line"/>
    </contour>
    <contour>
      <point x="841.0766461637132" y="265.85800759051824" type="line"/>
      <point x="532.7922317020021" y="14.142135623731008" type="line"/>
      <point x="561.076502949464" y="-14.142135623730892" type="line"/>
      <point x="812.7923749162513" y="294.14227883798014" type="line"/>
    </contour>
    <contour>
      <point x="1234.1424565829097" y="630.6395467622531" type="line"/>
      <point x="939.6579380628356" y="392.7235707371026" type="line"/>
      <point x="967.9422093102975" y="364.4392994896407" type="line"/>
      <point x="1205.858185335448" y="658.923818009715" type="line"/>
    </contour>
    <contour>
      <point x="869.3609174111751" y="265.85800759051824" type="line"/>
      <point x="561.076502949464" y="14.142135623731008" type="line"/>
      <point x="589.360774196926" y="-14.142135623730892" type="line"/>
      <point x="841.0766461637132" y="294.14227883798014" type="line"/>
    </contour>
    <contour>
      <point x="1234.1424565829097" y="602.3552755147912" type="line"/>
      <point x="999.9974810218274" y="424.7788424486324" type="line"/>
      <point x="1028.2817522692894" y="396.4945712011705" type="line"/>
      <point x="1205.858185335448" y="630.6395467622531" type="line"/>
    </contour>
    <contour>
      <point x="897.645188658637" y="265.85800759051824" type="line"/>
      <point x="589.360774196926" y="14.142135623731008" type="line"/>
      <point x="617.6450454443878" y="-14.142135623730892" type="line"/>
      <point x="869.3609174111751" y="294.14227883798014" type="line"/>
    </contour>
    <contour>
      <point x="1234.14245658291" y="574.0710042673293" type="line"/>
      <point x="1060.337023980819" y="456.83411416016213" type="line"/>
      <point x="1088.621295228281" y="428.5498429127002" type="line"/>
      <point x="1205.8581853354478" y="602.3552755147912" type="line"/>
    </contour>
    <contour>
      <point x="925.9294599060989" y="265.85800759051824" type="line"/>
      <point x="617.6450454443878" y="14.142135623731008" type="line"/>
      <point x="645.9293166918497" y="-14.142135623730892" type="line"/>
      <point x="897.645188658637" y="294.14227883798014" type="line"/>
    </contour>
    <contour>
      <point x="1234.14245658291" y="545.7867330198674" type="line"/>
      <point x="1120.6772740465917" y="488.89009297847304" type="line"/>
      <point x="1148.9615452940538" y="460.60582173101113" type="line"/>
      <point x="1205.8581853354478" y="574.0710042673293" type="line"/>
    </contour>
    <contour>
      <point x="954.2137311535608" y="265.85800759051824" type="line"/>
      <point x="645.9293166918497" y="14.142135623731008" type="line"/>
      <point x="674.2135879393117" y="-14.142135623730892" type="line"/>
      <point x="925.9294599060989" y="294.14227883798014" type="line"/>
    </contour>
    <contour>
      <point x="982.4980024010227" y="265.85800759051824" type="line"/>
      <point x="674.2135879393117" y="14.142135623731008" type="line"/>
      <point x="702.4978591867736" y="-14.142135623730892" type="line"/>
      <point x="954.2137311535608" y="294.14227883798014" type="line"/>
    </contour>
    <contour>
      <point x="1010.7822736484846" y="265.85800759051824" type="line"/>
      <point x="702.4978591867736" y="14.142135623731008" type="line"/>
      <point x="730.7821304342355" y="-14.142135623730892" type="line"/>
      <point x="982.4980024010227" y="294.14227883798014" type="line"/>
    </contour>
    <contour>
      <point x="1039.0665448959467" y="265.85800759051824" type="line"/>
      <point x="730.7821304342355" y="14.142135623731008" type="line"/>
      <point x="759.0664016816974" y="-14.142135623730892" type="line"/>
      <point x="1010.7822736484846" y="294.14227883798014" type="line"/>
    </contour>
    <contour>
      <point x="1067.3508161434083" y="265.85800759051824" type="line"/>
      <point x="759.0664016816974" y="14.142135623731008" type="line"/>
      <point x="787.3506729291593" y="-14.142135623730892" type="line"/>
      <point x="1039.0665448959467" y="294.14227883798014" type="line"/>
    </contour>
    <contour>
      <point x="1095.6350873908705" y="265.85800759051824" type="line"/>
      <point x="787.3506729291593" y="14.142135623731008" type="line"/>
      <point x="815.6349441766212" y="-14.142135623730892" type="line"/>
      <point x="1067.3508161434086" y="294.14227883798014" type="line"/>
    </contour>
    <contour>
      <point x="1123.9193586383321" y="265.85800759051824" type="line"/>
      <point x="815.6349441766212" y="14.142135623731008" type="line"/>
      <point x="843.9192154240831" y="-14.142135623730892" type="line"/>
      <point x="1095.6350873908705" y="294.14227883798014" type="line"/>
    </contour>
    <contour>
      <point x="1152.2036298857943" y="265.85800759051824" type="line"/>
      <point x="843.9192154240831" y="14.142135623731008" type="line"/>
      <point x="872.203486671545" y="-14.142135623730892" type="line"/>
      <point x="1123.9193586383324" y="294.14227883798014" type="line"/>
    </contour>
    <contour>
      <point x="1180.487901133256" y="265.85800759051824" type="line"/>
      <point x="872.203486671545" y="14.142135623731008" type="line"/>
      <point x="900.4877579190069" y="-14.142135623730892" type="line"/>
      <point x="1152.2036298857943" y="294.14227883798014" type="line"/>
    </contour>
    <contour>
      <point x="1208.772172380718" y="265.85800759051824" type="line"/>
      <point x="900.4877579190069" y="14.142135623731008" type="line"/>
      <point x="928.7720291664688" y="-14.142135623730892" type="line"/>
      <point x="1180.4879011332562" y="294.14227883798014" type="line"/>
    </contour>
    <contour>
      <point x="1234.1424565829097" y="262.9440205452484" type="line"/>
      <point x="928.7720291664688" y="14.142135623731065" type="line"/>
      <point x="957.0563004139307" y="-14.142135623730836" type="line"/>
      <point x="1205.858185335448" y="291.2282917927103" type="line"/>
    </contour>
    <contour>
      <point x="1234.1424565829097" y="234.6597492977865" type="line"/>
      <point x="957.0563004139307" y="14.142135623731065" type="line"/>
      <point x="985.3405716613926" y="-14.142135623730836" type="line"/>
      <point x="1205.858185335448" y="262.9440205452484" type="line"/>
    </contour>
    <contour>
      <point x="1234.14245658291" y="206.37547805032472" type="line"/>
      <point x="985.3405716613926" y="14.142135623731072" type="line"/>
      <point x="1013.6248429088545" y="-14.142135623730843" type="line"/>
      <point x="1205.8581853354483" y="234.65974929778662" type="line"/>
    </contour>
    <contour>
      <point x="1234.1424565829102" y="178.09120680286276" type="line"/>
      <point x="1013.6248429088545" y="14.142135623730951" type="line"/>
      <point x="1041.9091141563163" y="-14.14213562373095" type="line"/>
      <point x="1205.8581853354483" y="206.37547805032466" type="line"/>
    </contour>
    <contour>
      <point x="1234.1424565829102" y="149.80693555540086" type="line"/>
      <point x="1041.9091141563165" y="14.142135623730951" type="line"/>
      <point x="1070.1933854037784" y="-14.14213562373095" type="line"/>
      <point x="1205.8581853354483" y="178.09120680286276" type="line"/>
    </contour>
    <contour>
      <point x="1234.1424565829102" y="121.52266430793895" type="line"/>
      <point x="1070.1933854037784" y="14.142135623730951" type="line"/>
      <point x="1098.47765665124" y="-14.14213562373095" type="line"/>
      <point x="1205.8581853354483" y="149.80693555540086" type="line"/>
    </contour>
    <contour>
      <point x="1234.1424565829102" y="93.23839306047705" type="line"/>
      <point x="1098.4776566512403" y="14.142135623730951" type="line"/>
      <point x="1126.7619278987022" y="-14.14213562373095" type="line"/>
      <point x="1205.8581853354483" y="121.52266430793895" type="line"/>
    </contour>
    <contour>
      <point x="1234.1424565829102" y="64.95412181301515" type="line"/>
      <point x="1126.7619278987022" y="14.142135623730951" type="line"/>
      <point x="1155.0461991461639" y="-14.14213562373095" type="line"/>
      <point x="1205.8581853354483" y="93.23839306047705" type="line"/>
    </contour>
  </outline>
</glyph>
<glyph name="z_angle_225_step_60" format="2">
  <advance width="1280"/>
  <outline>
    <contour>
      <point x="1205.858185335448" y="686.8630211479581" type="line"/>
      <point x="1135.147507216793" y="814.1422417615366" type="line"/>
      <point x="1106.8632359693313" y="785.8579705140747" type="line"/>
      <point x="1234.1424565829097" y="715.14729239542" type="line"/>
    </contour>
    <contour>
      <point x="1205.858185335448" y="602.0102074055725" type="line"/>
      <point x="1050.2946934744073" y="814.1422417615366" type="line"/>
      <point x="1022.0104222269455" y="785.8579705140747" type="line"/>
      <point x="1234.1424565829097" y="630.2944786530344" type="line"/>
    </contour>
    <contour>
      <point x="1205.858185335448" y="517.1573936631868" type="line"/>
      <point x="965.4418797320217" y="814.1422417615366" type="line"/>
      <point x="937.1576084845598" y="785.8579705140747" type="line"/>
      <point x="1234.1424565829097" y="545.4416649106487" type="line"/>
    </contour>
    <contour>
      <point x="1157.8230074758837" y="480.3397577803656" type="line"/>
      <point x="880.5890659896361" y="814.1422417615366" type="line"/>
      <point x="852.3047947421742" y="785.8579705140747" type="line"/>
      <point x="1186.1072787233454" y="508.6240290278275" type="line"/>
    </contour>
    <contour>
      <point x="1102.4091703546376" y="450.900781159226" type="line"/>
      <point x="795.7362522472504" y="814.1422417615366" type="line"/>
      <point x="767.4519809997885" y="785.8579705140747" type="line"/>
      <point x="1130.6934416020993" y="479.18505240668793" type="line"/>
    </contour>
    <contour>
      <point x="1046.9953332333914" y="421.4618045380865" type="line"/>
      <point x="710.8834385048647" y="814.1422417615366" type="line"/>
      <point x="682.5991672574028" y="785.8579705140747" type="line"/>
      <point x="1075.279604480853" y="449.7460757855484" type="line"/>
    </contour>
    <contour>
      <point x="1205.8581853354483" y="177.74613869364396" type="line"/>
      <point x="1146.0305876860355" y="294.1422788379803" type="line"/>
      <point x="1117.7463164385738" y="265.8580075905184" type="line"/>
      <point x="1234.14245658291" y="206.03040994110586" type="line"/>
    </contour>
    <contour>
      <point x="991.5807890053638" y="392.02353502372813" type="line"/>
      <point x="626.030624762479" y="814.1422417615365" type="line"/>
      <point x="597.7463535150171" y="785.8579705140746" type="line"/>
      <point x="1019.8650602528257" y="420.30780627119003" type="line"/>
    </contour>
    <contour>
      <point x="1205.8581853354483" y="92.89332495125824" type="line"/>
      <point x="1061.1777739436495" y="294.1422788379803" type="line"/>
      <point x="1032.8935026961879" y="265.8580075905184" type="line"/>
      <point x="1234.14245658291" y="121.17759619872015" type="line"/>
    </contour>
    <contour>
      <point x="936.1669518841176" y="362.5845584025886" type="line"/>
      <point x="541.1778110200933" y="814.1422417615365" type="line"/>
      <point x="512.8935397726314" y="785.8579705140746" type="line"/>
      <point x="964.4512231315795" y="390.8688296500505" type="line"/>
    </contour>
    <contour>
      <point x="1205.8581853354483" y="8.040511208872541" type="line"/>
      <point x="976.324960201264" y="294.1422788379803" type="line"/>
      <point x="948.0406889538021" y="265.8580075905184" type="line"/>
      <point x="1234.14245658291" y="36.324782456334454" type="line"/>
    </contour>
    <contour>
      <point x="880.7531147628714" y="333.1455817814491" type="line"/>
      <point x="456.32499727770755" y="814.1422417615365" type="line"/>
      <point x="428.04072603024565" y="785.8579705140746" type="line"/>
      <point x="909.0373860103333" y="361.429853028911" type="line"/>
    </contour>
    <contour>
      <point x="1143.1880184256659" y="-14.142135623730614" type="line"/>
      <point x="891.4721464588783" y="294.1422788379803" type="line"/>
      <point x="863.1878752114164" y="265.8580075905184" type="line"/>
      <point x="1171.4722896731275" y="14.1421356237313" type="line"/>
    </contour>
    <contour>
      <point x="825.338570534844" y="303.70731226709074" type="line"/>
      <point x="371.47218353532185" y="814.1422417615365" type="line"/>
      <point x="343.18791228785994" y="785.8579705140746" type="line"/>
      <point x="853.622841782306" y="331.99158351455264" type="line"/>
    </contour>
    <contour>
      <point x="1058.33520468328" y="-14.142135623730727" type="line"/>
      <point x="806.6193327164925" y="294.1422788379802" type="line"/>
      <point x="778.3350614690306" y="265.8580075905183" type="line"/>
      <point x="1086.6194759307416" y="14.142135623731185" type="line"/>
    </contour>
    <contour>
      <point x="769.9247334135979" y="274.268335645951" type="line"/>
      <point x="286.61936979293614" y="814.1422417615364" type="line"/>
      <point x="258.33509854547424" y="785.8579705140745" type="line"/>
      <point x="798.2090046610598" y="302.55260689341293" type="line"/>
    </contour>
    <contour>
      <point x="973.4823909408942" y="-14.142135623730727" type="line"/>
      <point x="497.0805108249567" y="518.8282869871304" type="line"/>
      <point x="468.7962395774948" y="490.54401573966845" type="line"/>
      <point x="1001.7666621883561" y="14.142135623731185" type="line"/>
    </contour>
    <contour>
      <point x="453.4824280173377" y="505.85782729982554" type="line"/>
      <point x="201.7665560505505" y="814.1422417615364" type="line"/>
      <point x="173.4822848030886" y="785.8579705140745" type="line"/>
      <point x="481.7666992647996" y="534.1420985472874" type="line"/>
    </contour>
    <contour>
      <point x="888.6295771985085" y="-14.142135623730727" type="line"/>
      <point x="441.6666737037105" y="489.3893103659908" type="line"/>
      <point x="413.3824024562486" y="461.1050391185289" type="line"/>
      <point x="916.9138484459704" y="14.142135623731185" type="line"/>
    </contour>
    <contour>
      <point x="368.629614274952" y="505.85782729982554" type="line"/>
      <point x="116.91374230816477" y="814.1422417615364" type="line"/>
      <point x="88.62947106070288" y="785.8579705140745" type="line"/>
      <point x="396.9138855224139" y="534.1420985472874" type="line"/>
    </contour>
    <contour>
      <point x="803.7767634561228" y="-14.142135623730727" type="line"/>
      <point x="386.25212947568315" y="459.95104085163246" type="line"/>
      <point x="357.96785822822125" y="431.66676960417055" type="line"/>
      <point x="832.0610347035847" y="14.142135623731185" type="line"/>
    </contour>
    <contour>
      <point x="283.7768005325663" y="505.85782729982554" type="line"/>
      <point x="74.14226732775289" y="772.0609029995626" type="line"/>
      <point x="45.857996080291" y="743.7766317521007" type="line"/>
      <point x="312.0610717800282" y="534.1420985472874" type="line"/>
    </contour>
    <contour>
      <point x="718.923949713737" y="-14.142135623730784" type="line"/>
      <point x="330.838292354437" y="430.5120642304929" type="line"/>
      <point x="302.5540211069751" y="402.227792983031" type="line"/>
      <point x="747.2082209611989" y="14.142135623731129" type="line"/>
    </contour>
    <contour>
      <point x="198.92398679018058" y="505.85782729982543" type="line"/>
      <point x="74.1422673277529" y="687.2080892571769" type="line"/>
      <point x="45.857996080291" y="658.923818009715" type="line"/>
      <point x="227.20825803764248" y="534.1420985472873" type="line"/>
    </contour>
    <contour>
      <point x="634.0711359713514" y="-14.14213562373084" type="line"/>
      <point x="275.4244552331909" y="401.07308760935337" type="line"/>
      <point x="247.14018398572898" y="372.78881636189146" type="line"/>
      <point x="662.3554072188133" y="14.142135623731072" type="line"/>
    </contour>
    <contour>
      <point x="114.0711730477949" y="505.85782729982543" type="line"/>
      <point x="74.14226732775296" y="602.3552755147912" type="line"/>
      <point x="45.85799608029106" y="574.0710042673293" type="line"/>
      <point x="142.3554442952568" y="534.1420985472873" type="line"/>
    </contour>
    <contour>
      <point x="549.2183222289657" y="-14.14213562373084" type="line"/>
      <point x="220.0099110051635" y="371.634818094995" type="line"/>
      <point x="191.7256397577016" y="343.3505468475331" type="line"/>
      <point x="577.5025934764276" y="14.142135623731072" type="line"/>
    </contour>
    <contour>
      <point x="464.36550848658" y="-14.14213562373084" type="line"/>
      <point x="164.59607388391734" y="342.19584147385547" type="line"/>
      <point x="136.31180263645544" y="313.91157022639356" type="line"/>
      <point x="492.6497797340419" y="14.142135623731072" type="line"/>
    </contour>
    <contour>
      <point x="379.5126947441943" y="-14.14213562373084" type="line"/>
      <point x="109.18223676267114" y="312.7568648527159" type="line"/>
      <point x="80.89796551520925" y="284.472593605254" type="line"/>
      <point x="407.7969659916562" y="14.142135623731072" type="line"/>
    </contour>
    <contour>
      <point x="294.65988100180857" y="-14.142135623730898" type="line"/>
      <point x="74.142267327753" y="262.94402054524835" type="line"/>
      <point x="45.857996080291116" y="234.65974929778645" type="line"/>
      <point x="322.9441522492705" y="14.142135623731015" type="line"/>
    </contour>
    <contour>
      <point x="209.80706725942287" y="-14.142135623730912" type="line"/>
      <point x="74.14226732775302" y="178.09120680286267" type="line"/>
      <point x="45.85799608029113" y="149.80693555540077" type="line"/>
      <point x="238.09133850688477" y="14.142135623731" type="line"/>
    </contour>
    <contour>
      <point x="124.95425351703716" y="-14.142135623730912" type="line"/>
      <point x="74.14226732775303" y="93.238393060477" type="line"/>
      <point x="45.857996080291144" y="64.95412181301508" type="line"/>
      <point x="153.23852476449906" y="14.142135623731" type="line"/>
    </contour>
  </outline>
</glyph>
<glyph name="z_angle_270_step_20" format="2">
  <advance width="1280"/>
  <outline>
    <contour>
      <point x="1190.0" y="2.247226876435393e-13" type="line"/>
      <point x="1230.0" y="280.0000000000002" type="line"/>
      <point x="1190.0" y="280.0000000000002" type="line"/>
      <point x="1230.0" y="2.173748068486552e-13" type="line"/>
    </contour>
    <contour>
      <point x="1190.0" y="514.6880000000002" type="line"/>
      <point x="1229.9999999999998" y="800.0000000000002" type="line"/>
      <point x="1189.9999999999998" y="800.0000000000002" type="line"/>
      <point x="1230.0" y="514.6880000000002" type="line"/>
    </contour>
    <contour>
      <point x="1170.0" y="2.2104874724609725e-13" type="line"/>
      <point x="1210.0" y="280.0000000000002" type="line"/>
      <point x="1170.0" y="280.0000000000002" type="line"/>
      <point x="1210.0" y="2.1370086645121314e-13" type="line"/>
    </contour>
    <contour>
      <point x="1170.0" y="504.0630000000002" type="line"/>
      <point x="1209.9999999999998" y="800.0000000000002" type="line"/>
      <point x="1169.9999999999998" y="800.0000000000002" type="line"/>
      <point x="1210.0" y="504.0630000000002" type="line"/>
    </contour>
    <contour>
      <point x="1150.0" y="2.1737480684865517e-13" type="line"/>
      <point x="1190.0" y="280.0000000000002" type="line"/>
      <point x="1150.0" y="280.0000000000002" type="line"/>
      <point x="1190.0" y="2.1002692605377106e-13" type="line"/>
    </contour>
    <contour>
      <point x="1150.0" y="493.4380000000002" type="line"/>
      <point x="1189.9999999999998" y="800.0000000000002" type="line"/>
      <point x="1149.9999999999998" y="800.0000000000002" type="line"/>
      <point x="1190.0" y="493.4380000000002" type="line"/>
    </contour>
    <contour>
      <point x="1130.0" y="2.137008664512131e-13" type="line"/>
      <point x="1170.0" y="280.0000000000002" type="line"/>
      <point x="1130.0" y="280.0000000000002" type="line"/>
      <point x="1170.0" y="2.06352985656329e-13" type="line"/>
    </contour>
    <contour>
      <point x="1130.0" y="482.8130000000002" type="line"/>
      <point x="1169.9999999999998" y="800.0000000000002" type="line"/>
      <point x="1129.9999999999998" y="800.0000000000002" type="line"/>
      <point x="1170.0" y="482.8130000000002" type="line"/>
    </contour>
    <contour>
      <point x="1110.0" y="2.1002692605377106e-13" type="line"/>
      <point x="1150.0" y="280.0000000000002" type="line"/>
      <point x="1110.0" y="280.0000000000002" type="line"/>
      <point x="1150.0" y="2.0267904525888695e-13" type="line"/>
    </contour>
    <contour>
      <point x="1110.0" y="472.1880000000002" type="line"/>
      <point x="1149.9999999999998" y="800.0000000000002" type="line"/>
      <point x="1109.9999999999998" y="800.0000000000002" type="line"/>
      <point x="1150.0" y="472.1880000000002" type="line"/>
    </contour>
    <contour>
      <point x="1090.0" y="2.06352985656329e-13" type="line"/>
      <point x="1130.0" y="280.0000000000002" type="line"/>
      <point x="1090.0" y="280.0000000000002" type="line"/>
      <point x="1130.0" y="1.990051048614449e-13" type="line"/>
    </contour>
    <contour>
      <point x="1090.0" y="461.5630000000002" type="line"/>
      <point x="1129.9999999999998" y="800.0000000000002" type="line"/>
      <point x="1089.9999999999998" y="800.0000000000002" type="line"/>
      <point x="1130.0" y="461.5630000000002" type="line"/>
    </contour>
    <contour>
      <point x="1070.0" y="2.0267904525888695e-13" type="line"/>
      <point x="1110.0" y="280.0000000000002" type="line"/>
      <point x="1070.0" y="280.0000000000002" type="line"/>
      <point x="1110.0" y="1.9533116446400284e-13" type="line"/>
    </contour>
    <contour>
      <point x="1070.0" y="450.9380000000002" type="line"/>
      <point x="1109.9999999999998" y="800.0000000000002" type="line"/>
      <point x="1069.9999999999998" y="800.0000000000002" type="line"/>
      <point x="1110.0" y="450.9380000000002" type="line"/>
    </contour>
    <contour>
      <point x="1050.0" y="1.9900510486144487e-13" type="line"/>
      <point x="1090.0" y="280.00000000000017" type="line"/>
      <point x="1050.0" y="280.00000000000017" type="line"/>
      <point x="1090.0" y="1.9165722406656076e-13" type="line"/>
    </contour>
    <contour>
      <point x="1050.0" y="440.31300000000016" type="line"/>
      <point x="1089.9999999999998" y="800.0000000000002" type="line"/>
      <point x="1049.9999999999998" y="800.0000000000002" type="line"/>
      <point x="1090.0" y="440.31300000000016" type="line"/>
    </contour>
    <contour>
      <point x="1030.0" y="1.9533116446400281e-13" type="line"/>
      <point x="1070.0" y="280.00000000000017" type="line"/>
      <point x="1030.0" y="280.00000000000017" type="line"/>
      <point x="1070.0" y="1.879832836691187e-13" type="line"/>
    </contour>
    <contour>
      <point x="1030.0" y="429.68800000000016" type="line"/>
      <point x="1069.9999999999998" y="800.0000000000002" type="line"/>
      <point x="1029.9999999999998" y="800.0000000000002" type="line"/>
      <point x="1070.0" y="429.68800000000016" type="line"/>
    </contour>
    <contour>
      <point x="1010.0" y="1.9165722406656076e-13" type="line"/>
      <point x="1050.0" y="280.00000000000017" type="line"/>
      <point x="1010.0" y="280.00000000000017" type="line"/>
      <point x="1050.0" y="1.8430934327167665e-13" type="line"/>
    </contour>
    <contour>
      <point x="1010.0" y="419.06300000000016" type="line"/>
      <point x="1049.9999999999998" y="800.0000000000002" type="line"/>
      <point x="1009.9999999999998" y="800.0000000000002" type="line"/>
      <point x="1050.0" y="419.06300000000016" type="line"/>
    </contour>
    <contour>
      <point x="990.0" y="1.879832836691187e-13" type="line"/>
      <point x="1030.0" y="280.00000000000017" type="line"/>
      <point x="990.0" y="280.00000000000017" type="line"/>
      <point x="1030.0" y="1.806354028742346e-13" type="line"/>
    </contour>
    <contour>
      <point x="989.9999999999999" y="408.43800000000016" type="line"/>
      <point x="1030.0" y="800.0000000000002" type="line"/>
      <point x="989.9999999999999" y="800.0000000000002" type="line"/>
      <point x="1030.0" y="408.43800000000016" type="line"/>
    </contour>
    <contour>
      <point x="970.0" y="1.8430934327167665e-13" type="line"/>
      <point x="1010.0" y="280.00000000000017" type="line"/>
      <point x="970.0" y="280.00000000000017" type="line"/>
      <point x="1010.0" y="1.7696146247679254e-13" type="line"/>
    </contour>
    <contour>
      <point x="969.9999999999999" y="397.81300000000016" type="line"/>
      <point x="1009.9999999999999" y="800.0000000000002" type="line"/>
      <point x="969.9999999999999" y="800.0000000000002" type="line"/>
      <point x="1009.9999999999999" y="397.81300000000016" type="line"/>
    </contour>
    <contour>
      <point x="950.0" y="1.8063540287423457e-13" type="line"/>
      <point x="990.0" y="280.00000000000017" type="line"/>
      <point x="950.0" y="280.00000000000017" type="line"/>
      <point x="990.0" y="1.7328752207935046e-13" type="line"/>
    </contour>
    <contour>
      <point x="949.9999999999999" y="387.18800000000016" type="line"/>
      <point x="989.9999999999999" y="800.0000000000002" type="line"/>
      <point x="949.9999999999999" y="800.0000000000002" type="line"/>
      <point x="989.9999999999999" y="387.18800000000016" type="line"/>
    </contour>
    <contour>
      <point x="930.0" y="1.7696146247679252e-13" type="line"/>
      <point x="970.0" y="280.00000000000017" type="line"/>
      <point x="930.0" y="280.00000000000017" type="line"/>
      <point x="970.0" y="1.696135816819084e-13" type="line"/>
    </contour>
    <contour>
      <point x="929.9999999999999" y="376.56300000000016" type="line"/>
      <point x="969.9999999999999" y="800.0000000000002" type="line"/>
      <point x="929.9999999999999" y="800.0000000000002" type="line"/>
      <point x="969.9999999999999" y="376.56300000000016" type="line"/>
    </contour>
    <contour>
      <point x="910.0" y="1.7328752207935046e-13" type="line"/>
      <point x="950.0" y="280.00000000000017" type="line"/>
      <point x="910.0" y="280.00000000000017" type="line"/>
      <point x="950.0" y="1.6593964128446635e-13" type="line"/>
    </contour>
    <contour>
      <point x="909.9999999999999" y="365.93800000000016" type="line"/>
      <point x="949.9999999999999" y="800.0000000000002" type="line"/>
      <point x="909.9999999999999" y="800.0000000000002" type="line"/>
      <point x="949.9999999999999" y="365.93800000000016" type="line"/>
    </contour>
    <contour>
      <point x="890.0" y="1.696135816819084e-13" type="line"/>
      <point x="930.0" y="280.00000000000017" type="line"/>
      <point x="890.0" y="280.00000000000017" type="line"/>
      <point x="930.0" y="1.622657008870243e-13" type="line"/>
    </contour>
    <contour>
      <point x="889.9999999999999" y="355.31300000000016" type="line"/>
      <point x="929.9999999999999" y="800.0000000000001" type="line"/>
      <point x="889.9999999999999" y="800.0000000000001" type="line"/>
      <point x="929.9999999999999" y="355.31300000000016" type="line"/>
    </contour>
    <contour>
      <point x="870.0" y="1.6593964128446635e-13" type="line"/>
      <point x="910.0" y="280.00000000000017" type="line"/>
      <point x="870.0" y="280.00000000000017" type="line"/>
      <point x="910.0" y="1.5859176048958224e-13" type="line"/>
    </contour>
    <contour>
      <point x="869.9999999999999" y="344.68800000000016" type="line"/>
      <point x="909.9999999999999" y="800.0000000000001" type="line"/>
      <point x="869.9999999999999" y="800.0000000000001" type="line"/>
      <point x="909.9999999999999" y="344.68800000000016" type="line"/>
    </contour>
    <contour>
      <point x="850.0" y="1.6226570088702427e-13" type="line"/>
      <point x="890.0" y="280.00000000000017" type="line"/>
      <point x="850.0" y="280.00000000000017" type="line"/>
      <point x="890.0" y="1.5491782009214016e-13" type="line"/>
    </contour>
    <contour>
      <point x="849.9999999999999" y="334.06300000000016" type="line"/>
      <point x="889.9999999999999" y="800.0000000000001" type="line"/>
      <point x="849.9999999999999" y="800.0000000000001" type="line"/>
      <point x="889.9999999999999" y="334.06300000000016" type="line"/>
    </contour>
    <contour>
      <point x="830.0" y="1.5859176048958222e-13" type="line"/>
      <point x="870.0" y="280.00000000000017" type="line"/>
      <point x="830.0" y="280.00000000000017" type="line"/>
      <point x="870.0" y="1.512438796946981e-13" type="line"/>
    </contour>
    <contour>
      <point x="829.9999999999999" y="323.43800000000016" type="line"/>
      <point x="869.9999999999999" y="800.0000000000001" type="line"/>
      <point x="829.9999999999999" y="800.0000000000001" type="line"/>
      <point x="869.9999999999999" y="323.43800000000016" type="line"/>
    </contour>
    <contour>
      <point x="810.0" y="1.5491782009214016e-13" type="line"/>
      <point x="850.0" y="280.00000000000017" type="line"/>
      <point x="810.0" y="280.00000000000017" type="line"/>
      <point x="850.0" y="1.4756993929725606e-13" type="line"/>
    </contour>
    <contour>
      <point x="809.9999999999999" y="312.81300000000016" type="line"/>
      <point x="849.9999999999999" y="800.0000000000001" type="line"/>
      <point x="809.9999999999999" y="800.0000000000001" type="line"/>
      <point x="849.9999999999999" y="312.81300000000016" type="line"/>
    </contour>
    <contour>
      <point x="790.0" y="1.512438796946981e-13" type="line"/>
      <point x="830.0" y="280.00000000000017" type="line"/>
      <point x="790.0" y="280.00000000000017" type="line"/>
      <point x="830.0" y="1.43895998899814e-13" type="line"/>
    </contour>
    <contour>
      <point x="790.0" y="302.18800000000016" type="line"/>
      <point x="829.9999999999999" y="800.0000000000001" type="line"/>
      <point x="789.9999999999999" y="800.0000000000001" type="line"/>
      <point x="830.0" y="302.18800000000016" type="line"/>
    </contour>
    <contour>
      <point x="770.0" y="1.4756993929725606e-13" type="line"/>
      <point x="810.0" y="280.00000000000017" type="line"/>
      <point x="770.0" y="280.00000000000017" type="line"/>
      <point x="810.0" y="1.4022205850237195e-13" type="line"/>
    </contour>
    <contour>
      <point x="770.0" y="291.56300000000016" type="line"/>
      <point x="809.9999999999999" y="800.0000000000001" type="line"/>
      <point x="769.9999999999999" y="800.0000000000001" type="line"/>
      <point x="810.0" y="291.56300000000016" type="line"/>
    </contour>
    <contour>
      <point x="750.0" y="1.43895998899814e-13" type="line"/>
      <point x="790.0" y="280.0000000000001" type="line"/>
      <point x="750.0" y="280.0000000000001" type="line"/>
      <point x="790.0" y="1.365481181049299e-13" type="line"/>
    </contour>
    <contour>
      <point x="750.0" y="280.9380000000001" type="line"/>
      <point x="789.9999999999999" y="800.0000000000001" type="line"/>
      <point x="749.9999999999999" y="800.0000000000001" type="line"/>
      <point x="790.0" y="280.9380000000001" type="line"/>
    </contour>
    <contour>
      <point x="730.0" y="1.4022205850237192e-13" type="line"/>
      <point x="769.9999999999999" y="800.0000000000001" type="line"/>
      <point x="729.9999999999999" y="800.0000000000001" type="line"/>
      <point x="770.0" y="1.328741777074878e-13" type="line"/>
    </contour>
    <contour>
      <point x="710.0" y="1.3654811810492987e-13" type="line"/>
      <point x="749.9999999999999" y="800.0000000000001" type="line"/>
      <point x="709.9999999999999" y="800.0000000000001" type="line"/>
      <point x="750.0" y="1.2920023731004576e-13" type="line"/>
    </contour>
    <contour>
      <point x="690.0" y="1.328741777074878e-13" type="line"/>
      <point x="729.9999999999999" y="800.0000000000001" type="line"/>
      <point x="689.9999999999999" y="800.0000000000001" type="line"/>
      <point x="730.0" y="1.255262969126037e-13" type="line"/>
    </contour>
    <contour>
      <point x="670.0" y="1.2920023731004576e-13" type="line"/>
      <point x="709.9999999999999" y="800.0000000000001" type="line"/>
      <point x="669.9999999999999" y="800.0000000000001" type="line"/>
      <point x="710.0" y="1.2185235651516165e-13" type="line"/>
    </contour>
    <contour>
      <point x="650.0" y="1.255262969126037e-13" type="line"/>
      <point x="689.9999999999999" y="800.0000000000001" type="line"/>
      <point x="649.9999999999999" y="800.0000000000001" type="line"/>
      <point x="690.0" y="1.181784161177196e-13" type="line"/>
    </contour>
    <contour>
      <point x="630.0" y="1.2185235651516162e-13" type="line"/>
      <point x="669.9999999999999" y="800.0000000000001" type="line"/>
      <point x="629.9999999999999" y="800.0000000000001" type="line"/>
      <point x="670.0" y="1.1450447572027751e-13" type="line"/>
    </contour>
    <contour>
      <point x="610.0" y="1.1817841611771957e-13" type="line"/>
      <point x="649.9999999999999" y="800.0000000000001" type="line"/>
      <point x="609.9999999999999" y="800.0000000000001" type="line"/>
      <point x="650.0" y="1.1083053532283545e-13" type="line"/>
    </contour>
    <contour>
      <point x="590.0" y="1.1450447572027751e-13" type="line"/>
      <point x="629.9999999999999" y="800.0000000000001" type="line"/>
      <point x="589.9999999999999" y="800.0000000000001" type="line"/>
      <point x="630.0" y="1.0715659492539339e-13" type="line"/>
    </contour>
    <contour>
      <point x="570.0" y="1.1083053532283546e-13" type="line"/>
      <point x="609.9999999999999" y="800.0000000000001" type="line"/>
      <point x="569.9999999999999" y="800.0000000000001" type="line"/>
      <point x="610.0" y="1.0348265452795134e-13" type="line"/>
    </contour>
    <contour>
      <point x="550.0" y="1.0715659492539339e-13" type="line"/>
      <point x="589.9999999999999" y="800.0000000000001" type="line"/>
      <point x="549.9999999999999" y="800.0000000000001" type="line"/>
      <point x="590.0" y="9.980871413050927e-14" type="line"/>
    </contour>
    <contour>
      <point x="530.0" y="1.0348265452795134e-13" type="line"/>
      <point x="569.9999999999999" y="800.0000000000001" type="line"/>
      <point x="529.9999999999999" y="800.0000000000001" type="line"/>
      <point x="570.0" y="9.613477373306722e-14" type="line"/>
    </contour>
    <contour>
      <point x="510.0" y="9.980871413050927e-14" type="line"/>
      <point x="549.9999999999999" y="800.0000000000001" type="line"/>
      <point x="509.9999999999999" y="800.0000000000001" type="line"/>
      <point x="550.0" y="9.246083333562515e-14" type="line"/>
    </contour>
    <contour>
      <point x="490.0" y="9.613477373306722e-14" type="line"/>
      <point x="529.9999999999999" y="519.0620000000001" type="line"/>
      <point x="489.9999999999999" y="519.0620000000001" type="line"/>
      <point x="530.0" y="8.87868929381831e-14" type="line"/>
    </contour>
    <contour>
      <point x="489.9999999999999" y="520.0000000000001" type="line"/>
      <point x="529.9999999999998" y="800.0000000000001" type="line"/>
      <point x="489.99999999999983" y="800.0000000000001" type="line"/>
      <point x="529.9999999999999" y="520.0000000000001" type="line"/>
    </contour>
    <contour>
      <point x="470.0" y="9.246083333562516e-14" type="line"/>
      <point x="509.9999999999999" y="508.4370000000001" type="line"/>
      <point x="469.9999999999999" y="508.4370000000001" type="line"/>
      <point x="510.0" y="8.511295254074104e-14" type="line"/>
    </contour>
    <contour>
      <point x="469.9999999999999" y="520.0000000000001" type="line"/>
      <point x="509.99999999999983" y="800.0000000000001" type="line"/>
      <point x="469.99999999999983" y="800.0000000000001" type="line"/>
      <point x="509.9999999999999" y="520.0000000000001" type="line"/>
    </contour>
    <contour>
      <point x="450.0" y="8.87868929381831e-14" type="line"/>
      <point x="489.9999999999999" y="497.8120000000001" type="line"/>
      <point x="449.9999999999999" y="497.8120000000001" type="line"/>
      <point x="490.0" y="8.143901214329897e-14" type="line"/>
    </contour>
    <contour>
      <point x="449.9999999999999" y="520.0000000000001" type="line"/>
      <point x="489.99999999999983" y="800.0000000000001" type="line"/>
      <point x="449.99999999999983" y="800.0000000000001" type="line"/>
      <point x="489.9999999999999" y="520.0000000000001" type="line"/>
    </contour>
    <contour>
      <point x="430.0" y="8.511295254074104e-14" type="line"/>
      <point x="469.9999999999999" y="487.18700000000007" type="line"/>
      <point x="429.9999999999999" y="487.18700000000007" type="line"/>
      <point x="470.0" y="7.776507174585692e-14" type="line"/>
    </contour>
    <contour>
      <point x="429.9999999999999" y="520.0000000000001" type="line"/>
      <point x="469.99999999999983" y="800.0000000000001" type="line"/>
      <point x="429.99999999999983" y="800.0000000000001" type="line"/>
      <point x="469.9999999999999" y="520.0000000000001" type="line"/>
    </contour>
    <contour>
      <point x="410.0" y="8.143901214329897e-14" type="line"/>
      <point x="449.9999999999999" y="476.56200000000007" type="line"/>
      <point x="409.9999999999999" y="476.56200000000007" type="line"/>
      <point x="450.0" y="7.409113134841485e-14" type="line"/>
    </contour>
    <contour>
      <point x="409.9999999999999" y="520.0000000000001" type="line"/>
      <point x="449.99999999999983" y="800.0000000000001" type="line"/>
      <point x="409.99999999999983" y="800.0000000000001" type="line"/>
      <point x="449.9999999999999" y="520.0000000000001" type="line"/>
    </contour>
    <contour>
      <point x="390.0" y="7.776507174585692e-14" type="line"/>
      <point x="429.9999999999999" y="465.93700000000007" type="line"/>
      <point x="389.9999999999999" y="465.93700000000007" type="line"/>
      <point x="430.0" y="7.04171909509728e-14" type="line"/>
    </contour>
    <contour>
      <point x="389.9999999999999" y="520.0000000000001" type="line"/>
      <point x="429.99999999999983" y="800.0000000000001" type="line"/>
      <point x="389.99999999999983" y="800.0000000000001" type="line"/>
      <point x="429.9999999999999" y="520.0000000000001" type="line"/>
    </contour>
    <contour>
      <point x="370.0" y="7.409113134841487e-14" type="line"/>
      <point x="409.99999999999994" y="455.31200000000007" type="line"/>
      <point x="369.99999999999994" y="455.31200000000007" type="line"/>
      <point x="410.0" y="6.674325055353074e-14" type="line"/>
    </contour>
    <contour>
      <point x="369.9999999999999" y="520.0000000000001" type="line"/>
      <point x="409.99999999999983" y="800.0000000000001" type="line"/>
      <point x="369.99999999999983" y="800.0000000000001" type="line"/>
      <point x="409.9999999999999" y="520.0000000000001" type="line"/>
    </contour>
    <contour>
      <point x="350.0" y="7.04171909509728e-14" type="line"/>
      <point x="389.99999999999994" y="444.68700000000007" type="line"/>
      <point x="349.99999999999994" y="444.68700000000007" type="line"/>
      <point x="390.0" y="6.306931015608868e-14" type="line"/>
    </contour>
    <contour>
      <point x="349.9999999999999" y="520.0000000000001" type="line"/>
      <point x="389.99999999999983" y="800.0000000000001" type="line"/>
      <point x="349.99999999999983" y="800.0000000000001" type="line"/>
      <point x="389.9999999999999" y="520.0000000000001" type="line"/>
    </contour>
    <contour>
      <point x="330.0" y="6.674325055353074e-14" type="line"/>
      <point x="369.99999999999994" y="434.06200000000007" type="line"/>
      <point x="329.99999999999994" y="434.06200000000007" type="line"/>
      <point x="370.0" y="5.939536975864662e-14" type="line"/>
    </contour>
    <contour>
      <point x="329.9999999999999" y="520.0000000000001" type="line"/>
      <point x="369.99999999999983" y="800.0000000000001" type="line"/>
      <point x="329.99999999999983" y="800.0000000000001" type="line"/>
      <point x="369.9999999999999" y="520.0000000000001" type="line"/>
    </contour>
    <contour>
      <point x="310.0" y="6.306931015608868e-14" type="line"/>
      <point x="349.99999999999994" y="423.43700000000007" type="line"/>
      <point x="309.99999999999994" y="423.43700000000007" type="line"/>
      <point x="350.0" y="5.572142936120456e-14" type="line"/>
    </contour>
    <contour>
      <point x="309.9999999999999" y="520.0000000000001" type="line"/>
      <point x="349.99999999999983" y="800.0000000000001" type="line"/>
      <point x="309.99999999999983" y="800.0000000000001" type="line"/>
      <point x="349.9999999999999" y="520.0000000000001" type="line"/>
    </contour>
    <contour>
      <point x="290.0" y="5.939536975864662e-14" type="line"/>
      <point x="329.99999999999994" y="412.81200000000007" type="line"/>
      <point x="289.99999999999994" y="412.81200000000007" type="line"/>
      <point x="330.0" y="5.204748896376251e-14" type="line"/>
    </contour>
    <contour>
      <point x="289.9999999999999" y="520.0000000000001" type="line"/>
      <point x="329.99999999999983" y="800.0000000000001" type="line"/>
      <point x="289.99999999999983" y="800.0000000000001" type="line"/>
      <point x="329.9999999999999" y="520.0000000000001" type="line"/>
    </contour>
    <contour>
      <point x="270.0" y="5.572142936120457e-14" type="line"/>
      <point x="309.99999999999994" y="402.18700000000007" type="line"/>
      <point x="269.99999999999994" y="402.18700000000007" type="line"/>
      <point x="310.0" y="4.8373548566320447e-14" type="line"/>
    </contour>
    <contour>
      <point x="269.9999999999999" y="520.0" type="line"/>
      <point x="309.99999999999983" y="800.0" type="line"/>
      <point x="269.99999999999983" y="800.0" type="line"/>
      <point x="309.9999999999999" y="520.0" type="line"/>
    </contour>
    <contour>
      <point x="250.0" y="5.2047488963762514e-14" type="line"/>
      <point x="289.99999999999994" y="391.56200000000007" type="line"/>
      <point x="249.99999999999994" y="391.56200000000007" type="line"/>
      <point x="290.0" y="4.469960816887839e-14" type="line"/>
    </contour>
    <contour>
      <point x="249.9999999999999" y="520.0" type="line"/>
      <point x="289.99999999999983" y="800.0" type="line"/>
      <point x="249.99999999999983" y="800.0" type="line"/>
      <point x="289.9999999999999" y="520.0" type="line"/>
    </contour>
    <contour>
      <point x="230.0" y="4.837354856632045e-14" type="line"/>
      <point x="269.99999999999994" y="380.93700000000007" type="line"/>
      <point x="229.99999999999994" y="380.93700000000007" type="line"/>
      <point x="270.0" y="4.102566777143633e-14" type="line"/>
    </contour>
    <contour>
      <point x="229.99999999999991" y="520.0" type="line"/>
      <point x="269.9999999999999" y="800.0" type="line"/>
      <point x="229.99999999999986" y="800.0" type="line"/>
      <point x="269.9999999999999" y="520.0" type="line"/>
    </contour>
    <contour>
      <point x="210.0" y="4.469960816887839e-14" type="line"/>
      <point x="249.99999999999994" y="370.31200000000007" type="line"/>
      <point x="209.99999999999994" y="370.31200000000007" type="line"/>
      <point x="250.0" y="3.735172737399427e-14" type="line"/>
    </contour>
    <contour>
      <point x="209.99999999999991" y="520.0" type="line"/>
      <point x="249.99999999999986" y="800.0" type="line"/>
      <point x="209.99999999999986" y="800.0" type="line"/>
      <point x="249.99999999999991" y="520.0" type="line"/>
    </contour>
    <contour>
      <point x="190.0" y="4.102566777143633e-14" type="line"/>
      <point x="229.99999999999994" y="359.68700000000007" type="line"/>
      <point x="189.99999999999994" y="359.68700000000007" type="line"/>
      <point x="230.0" y="3.367778697655221e-14" type="line"/>
    </contour>
    <contour>
      <point x="189.99999999999991" y="520.0" type="line"/>
      <point x="229.99999999999986" y="800.0" type="line"/>
      <point x="189.99999999999986" y="800.0" type="line"/>
      <point x="229.99999999999991" y="520.0" type="line"/>
    </contour>
    <contour>
      <point x="170.0" y="3.735172737399427e-14" type="line"/>
      <point x="209.99999999999994" y="349.06200000000007" type="line"/>
      <point x="169.99999999999994" y="349.06200000000007" type="line"/>
      <point x="210.0" y="3.000384657911015e-14" type="line"/>
    </contour>
    <contour>
      <point x="169.99999999999991" y="520.0" type="line"/>
      <point x="209.99999999999986" y="800.0" type="line"/>
      <point x="169.99999999999986" y="800.0" type="line"/>
      <point x="209.99999999999991" y="520.0" type="line"/>
    </contour>
    <contour>
      <point x="150.0" y="3.3677786976552216e-14" type="line"/>
      <point x="189.99999999999994" y="338.43700000000007" type="line"/>
      <point x="149.99999999999994" y="338.43700000000007" type="line"/>
      <point x="190.0" y="2.6329906181668095e-14" type="line"/>
    </contour>
    <contour>
      <point x="149.99999999999991" y="520.0" type="line"/>
      <point x="189.99999999999986" y="800.0" type="line"/>
      <point x="149.99999999999986" y="800.0" type="line"/>
      <point x="189.99999999999991" y="520.0" type="line"/>
    </contour>
    <contour>
      <point x="130.0" y="3.0003846579110155e-14" type="line"/>
      <point x="169.99999999999994" y="327.812" type="line"/>
      <point x="129.99999999999994" y="327.812" type="line"/>
      <point x="170.0" y="2.2655965784226034e-14" type="line"/>
    </contour>
    <contour>
      <point x="129.99999999999991" y="520.0" type="line"/>
      <point x="169.99999999999986" y="800.0" type="line"/>
      <point x="129.99999999999986" y="800.0" type="line"/>
      <point x="169.99999999999991" y="520.0" type="line"/>
    </contour>
    <contour>
      <point x="110.0" y="2.632990618166809e-14" type="line"/>
      <point x="149.99999999999994" y="317.187" type="line"/>
      <point x="109.99999999999994" y="317.187" type="line"/>
      <point x="150.0" y="1.8982025386783973e-14" type="line"/>
    </contour>
    <contour>
      <point x="109.99999999999991" y="520.0" type="line"/>
      <point x="149.99999999999986" y="800.0" type="line"/>
      <point x="109.99999999999986" y="800.0" type="line"/>
      <point x="149.99999999999991" y="520.0" type="line"/>
    </contour>
    <contour>
      <point x="90.0" y="2.2655965784226034e-14" type="line"/>
      <point x="129.99999999999994" y="306.562" type="line"/>
      <point x="89.99999999999994" y="306.562" type="line"/>
      <point x="130.0" y="1.5308084989341916e-14" type="line"/>
    </contour>
    <contour>
      <point x="89.9999999999999" y="520.0" type="line"/>
      <point x="129.99999999999986" y="800.0" type="line"/>
      <point x="89.99999999999986" y="800.0" type="line"/>
      <point x="129.9999999999999" y="520.0" type="line"/>
    </contour>
    <contour>
      <point x="70.0" y="1.8982025386783973e-14" type="line"/>
      <point x="109.99999999999994" y="295.937" type="line"/>
      <point x="69.99999999999994" y="295.937" type="line"/>
      <point x="110.0" y="1.1634144591899855e-14" type="line"/>
    </contour>
    <contour>
      <point x="69.9999999999999" y="520.0" type="line"/>
      <point x="109.99999999999986" y="800.0" type="line"/>
      <point x="69.99999999999986" y="800.0" type="line"/>
      <point x="109.9999999999999" y="520.0" type="line"/>
    </contour>
    <contour>
      <point x="50.0" y="1.5308084989341916e-14" type="line"/>
      <point x="89.99999999999994" y="285.312" type="line"/>
      <point x="49.99999999999994" y="285.312" type="line"/>
      <point x="90.0" y="7.960204194457794e-15" type="line"/>
    </contour>
    <contour>
      <point x="49.9999999999999" y="520.0" type="line"/>
      <point x="89.99999999999986" y="800.0" type="line"/>
      <point x="49.99999999999986" y="800.0" type="line"/>
      <point x="89.9999999999999" y="520.0" type="line"/>
    </contour>
  </outline>
</glyph>
<glyph name="z_angle_315_step_80" format="2">
  <advance width="1280"/>
  <outline>
    <contour>
      <point x="1050.2939863676265" y="14.142135623731185" type="line"/>
      <point x="1234.1417494761288" y="141.4213562373097" type="line"/>
      <point x="1205.857478228667" y="169.70562748477164" type="line"/>
      <point x="1078.5782576150882" y="-14.14213562373074" type="line"/>
    </contour>
    <contour>
      <point x="937.1569013777788" y="14.142135623731178" type="line"/>
      <point x="1234.1417494761288" y="254.55844122715746" type="line"/>
      <point x="1205.857478228667" y="282.84271247461936" type="line"/>
      <point x="965.4411726252407" y="-14.142135623730727" type="line"/>
    </contour>
    <contour>
      <point x="824.0198163879312" y="14.142135623731178" type="line"/>
      <point x="1132.3042308496422" y="265.85800759051847" type="line"/>
      <point x="1104.0199596021805" y="294.14227883798037" type="line"/>
      <point x="852.3040876353931" y="-14.142135623730727" type="line"/>
    </contour>
    <contour>
      <point x="710.8827313980836" y="14.142135623731122" type="line"/>
      <point x="1019.1671458597946" y="265.8580075905184" type="line"/>
      <point x="990.8828746123327" y="294.1422788379803" type="line"/>
      <point x="739.1670026455455" y="-14.142135623730784" type="line"/>
    </contour>
    <contour>
      <point x="597.7456464082361" y="14.142135623731058" type="line"/>
      <point x="906.030060869947" y="265.85800759051835" type="line"/>
      <point x="877.7457896224851" y="294.14227883798026" type="line"/>
      <point x="626.029917655698" y="-14.142135623730827" type="line"/>
    </contour>
    <contour>
      <point x="1017.8858683722846" y="434.28235758777976" type="line"/>
      <point x="1234.1417494761288" y="593.9696961967003" type="line"/>
      <point x="1205.857478228667" y="622.2539674441622" type="line"/>
      <point x="1046.1701396197464" y="405.99808634031785" type="line"/>
    </contour>
    <contour>
      <point x="484.6085614183885" y="14.142135623731065" type="line"/>
      <point x="792.8929758800994" y="265.85800759051824" type="line"/>
      <point x="764.6087046326375" y="294.14227883798014" type="line"/>
      <point x="512.8928326658504" y="-14.14213562373084" type="line"/>
    </contour>
    <contour>
      <point x="776.5269894295368" y="306.0605636348795" type="line"/>
      <point x="1234.1417494761288" y="707.1067811865479" type="line"/>
      <point x="1205.857478228667" y="735.3910524340098" type="line"/>
      <point x="804.8112606769987" y="277.7762923874176" type="line"/>
    </contour>
    <contour>
      <point x="371.4714764285409" y="14.142135623731036" type="line"/>
      <point x="1199.755853813808" y="785.8579705140747" type="line"/>
      <point x="1171.4715825663463" y="814.1422417615366" type="line"/>
      <point x="399.7557476760028" y="-14.14213562373087" type="line"/>
    </contour>
    <contour>
      <point x="258.3343914386933" y="14.14213562373103" type="line"/>
      <point x="1086.6187688239604" y="785.8579705140747" type="line"/>
      <point x="1058.3344975764983" y="814.1422417615366" type="line"/>
      <point x="286.6186626861552" y="-14.142135623730855" type="line"/>
    </contour>
    <contour>
      <point x="145.19730644884567" y="14.142135623730972" type="line"/>
      <point x="973.4816838341128" y="785.8579705140747" type="line"/>
      <point x="945.1974125866509" y="814.1422417615366" type="line"/>
      <point x="173.48157769630757" y="-14.142135623730912" type="line"/>
    </contour>
    <contour>
      <point x="45.85799608029115" y="27.93991024502406" type="line"/>
      <point x="860.3445988442652" y="785.8579705140747" type="line"/>
      <point x="832.0603275968033" y="814.1422417615366" type="line"/>
      <point x="74.14226732775307" y="-0.3443610024378252" type="line"/>
    </contour>
    <contour>
      <point x="45.85799608029113" y="141.07699523487167" type="line"/>
      <point x="400.6820575593571" y="439.33251421901394" type="line"/>
      <point x="372.3977863118952" y="467.61678546647585" type="line"/>
      <point x="74.14226732775303" y="112.79272398740976" type="line"/>
    </contour>
    <contour>
      <point x="438.9230993927067" y="534.1420985472874" type="line"/>
      <point x="747.2075138544177" y="785.8579705140746" type="line"/>
      <point x="718.9232426069558" y="814.1422417615365" type="line"/>
      <point x="467.2073706401686" y="505.85782729982554" type="line"/>
    </contour>
    <contour>
      <point x="45.8579960802911" y="254.21408022471928" type="line"/>
      <point x="159.32317861660925" y="311.1107202661136" type="line"/>
      <point x="131.03890736914735" y="339.3949915135755" type="line"/>
      <point x="74.142267327753" y="225.92980897725738" type="line"/>
    </contour>
    <contour>
      <point x="325.78601440285917" y="534.1420985472874" type="line"/>
      <point x="634.07042886457" y="785.8579705140746" type="line"/>
      <point x="605.7861576171081" y="814.1422417615365" type="line"/>
      <point x="354.07028565032107" y="505.85782729982554" type="line"/>
    </contour>
    <contour>
      <point x="212.64892941301153" y="534.1420985472874" type="line"/>
      <point x="520.9333438747224" y="785.8579705140746" type="line"/>
      <point x="492.64907262726047" y="814.1422417615365" type="line"/>
      <point x="240.93320066047343" y="505.85782729982554" type="line"/>
    </contour>
    <contour>
      <point x="99.51184442316386" y="534.1420985472873" type="line"/>
      <point x="407.7962588848749" y="785.8579705140746" type="line"/>
      <point x="379.511987637413" y="814.1422417615365" type="line"/>
      <point x="127.79611567062577" y="505.85782729982543" type="line"/>
    </contour>
    <contour>
      <point x="45.857996080291" y="593.625335194262" type="line"/>
      <point x="294.65917389502727" y="785.8579705140745" type="line"/>
      <point x="266.37490264756536" y="814.1422417615364" type="line"/>
      <point x="74.1422673277529" y="565.3410639468001" type="line"/>
    </contour>
    <contour>
      <point x="45.857996080290995" y="706.7624201841096" type="line"/>
      <point x="181.52208890517966" y="785.8579705140745" type="line"/>
      <point x="153.23781765771776" y="814.1422417615364" type="line"/>
      <point x="74.14226732775292" y="678.4781489366477" type="line"/>
    </contour>
  </outline>
</glyph>
<glyph name="z_angle_45_step_20" format="2">
  <advance width="1280"/>
  <outline>
    <contour>
      <point x="74.14156022097188" y="84.8528137423857" type="line"/>
      <point x="116.56796709216474" y="-14.142135623730947" type="line"/>
      <point x="144.85223833962664" y="14.14213562373095" type="line"/>
      <point x="45.85728897350998" y="56.568542494923804" type="line"/>
    </contour>
    <contour>
      <point x="74.14156022097187" y="113.13708498984761" type="line"/>
      <point x="144.85223833962664" y="-14.142135623730933" type="line"/>
      <point x="173.13650958708854" y="14.142135623730965" type="line"/>
      <point x="45.85728897350997" y="84.8528137423857" type="line"/>
    </contour>
    <contour>
      <point x="74.14156022097187" y="141.4213562373095" type="line"/>
      <point x="173.13650958708854" y="-14.142135623730933" type="line"/>
      <point x="201.42078083455044" y="14.142135623730965" type="line"/>
      <point x="45.85728897350997" y="113.13708498984761" type="line"/>
    </contour>
    <contour>
      <point x="74.14156022097185" y="169.7056274847714" type="line"/>
      <point x="201.4207808345504" y="-14.142135623730919" type="line"/>
      <point x="229.70505208201232" y="14.14213562373098" type="line"/>
      <point x="45.85728897350995" y="141.4213562373095" type="line"/>
    </contour>
    <contour>
      <point x="74.14156022097185" y="197.9898987322333" type="line"/>
      <point x="229.70505208201232" y="-14.142135623730919" type="line"/>
      <point x="257.9893233294742" y="14.14213562373098" type="line"/>
      <point x="45.85728897350995" y="169.7056274847714" type="line"/>
    </contour>
    <contour>
      <point x="74.14156022097185" y="226.27416997969522" type="line"/>
      <point x="257.98932332947425" y="-14.142135623730919" type="line"/>
      <point x="286.27359457693615" y="14.14213562373098" type="line"/>
      <point x="45.85728897350995" y="197.9898987322333" type="line"/>
    </contour>
    <contour>
      <point x="74.14156022097185" y="254.55844122715712" type="line"/>
      <point x="286.27359457693615" y="-14.142135623730919" type="line"/>
      <point x="314.55786582439805" y="14.14213562373098" type="line"/>
      <point x="45.85728897350995" y="226.27416997969522" type="line"/>
    </contour>
    <contour>
      <point x="74.14156022097184" y="282.842712474619" type="line"/>
      <point x="314.55786582439805" y="-14.142135623730919" type="line"/>
      <point x="342.84213707185995" y="14.14213562373098" type="line"/>
      <point x="45.85728897350994" y="254.55844122715712" type="line"/>
    </contour>
    <contour>
      <point x="85.23394429744522" y="300.03459964560756" type="line"/>
      <point x="342.84213707185995" y="-14.142135623730919" type="line"/>
      <point x="371.12640831932185" y="14.142135623730983" type="line"/>
      <point x="56.94967304998332" y="271.75032839814565" type="line"/>
    </contour>
    <contour>
      <point x="103.7056947423814" y="309.8471204481333" type="line"/>
      <point x="371.12640831932185" y="-14.142135623730919" type="line"/>
      <point x="399.41067956678376" y="14.142135623730978" type="line"/>
      <point x="75.4214234949195" y="281.5628492006714" type="line"/>
    </contour>
    <contour>
      <point x="122.17673808053641" y="319.66034835744017" type="line"/>
      <point x="399.41067956678376" y="-14.142135623730919" type="line"/>
      <point x="427.69495081424566" y="14.142135623730978" type="line"/>
      <point x="93.89246683307451" y="291.37607710997827" type="line"/>
    </contour>
    <contour>
      <point x="140.64778141869138" y="329.47357626674705" type="line"/>
      <point x="427.69495081424566" y="-14.142135623730919" type="line"/>
      <point x="455.97922206170756" y="14.14213562373098" type="line"/>
      <point x="112.36351017122949" y="301.18930501928514" type="line"/>
    </contour>
    <contour>
      <point x="159.11953186362757" y="339.2860970692728" type="line"/>
      <point x="455.97922206170756" y="-14.142135623730919" type="line"/>
      <point x="484.26349330916946" y="14.14213562373098" type="line"/>
      <point x="130.83526061616567" y="311.0018258218109" type="line"/>
    </contour>
    <contour>
      <point x="177.59057520178257" y="349.0993249785797" type="line"/>
      <point x="484.26349330916946" y="-14.142135623730919" type="line"/>
      <point x="512.5477645566314" y="14.142135623730978" type="line"/>
      <point x="149.30630395432067" y="320.8150537311178" type="line"/>
    </contour>
    <contour>
      <point x="196.0623256467187" y="358.9118457811054" type="line"/>
      <point x="512.5477645566313" y="-14.14213562373089" type="line"/>
      <point x="540.8320358040932" y="14.142135623731008" type="line"/>
      <point x="167.7780543992568" y="330.6275745336435" type="line"/>
    </contour>
    <contour>
      <point x="214.53336898487373" y="368.72507369041233" type="line"/>
      <point x="540.8320358040932" y="-14.14213562373089" type="line"/>
      <point x="569.116307051555" y="14.142135623731006" type="line"/>
      <point x="186.24909773741183" y="340.4408024429504" type="line"/>
    </contour>
    <contour>
      <point x="233.0051194298099" y="378.53759449293807" type="line"/>
      <point x="569.116307051555" y="-14.14213562373089" type="line"/>
      <point x="597.400578299017" y="14.142135623731006" type="line"/>
      <point x="204.720848182348" y="350.25332324547617" type="line"/>
    </contour>
    <contour>
      <point x="251.4761627679649" y="388.35082240224494" type="line"/>
      <point x="597.400578299017" y="-14.14213562373089" type="line"/>
      <point x="625.6848495464789" y="14.142135623731008" type="line"/>
      <point x="223.191891520503" y="360.06655115478304" type="line"/>
    </contour>
    <contour>
      <point x="74.14156022097183" y="593.9696961966999" type="line"/>
      <point x="105.68488662292253" y="505.85782729982543" type="line"/>
      <point x="133.96915787038444" y="534.1420985472873" type="line"/>
      <point x="45.857288973509924" y="565.685424949238" type="line"/>
    </contour>
    <contour>
      <point x="269.9479132129011" y="398.1633432047707" type="line"/>
      <point x="625.6848495464789" y="-14.14213562373089" type="line"/>
      <point x="653.9691207939408" y="14.142135623731006" type="line"/>
      <point x="241.66364196543918" y="369.8790719573088" type="line"/>
    </contour>
    <contour>
      <point x="74.14156022097183" y="622.2539674441618" type="line"/>
      <point x="133.96915787038444" y="505.85782729982543" type="line"/>
      <point x="162.25342911784634" y="534.1420985472873" type="line"/>
      <point x="45.857288973509924" y="593.9696961966999" type="line"/>
    </contour>
    <contour>
      <point x="288.41895655105606" y="407.9765711140776" type="line"/>
      <point x="653.9691207939408" y="-14.14213562373089" type="line"/>
      <point x="682.2533920414027" y="14.142135623731006" type="line"/>
      <point x="260.13468530359415" y="379.6922998666157" type="line"/>
    </contour>
    <contour>
      <point x="74.14156022097183" y="650.5382386916237" type="line"/>
      <point x="162.2534291178463" y="505.85782729982543" type="line"/>
      <point x="190.5377003653082" y="534.1420985472873" type="line"/>
      <point x="45.857288973509924" y="622.2539674441618" type="line"/>
    </contour>
    <contour>
      <point x="306.8899998892111" y="417.7897990233845" type="line"/>
      <point x="682.2533920414027" y="-14.14213562373089" type="line"/>
      <point x="710.5376632888646" y="14.142135623731006" type="line"/>
      <point x="278.6057286417492" y="389.5055277759226" type="line"/>
    </contour>
    <contour>
      <point x="74.14156022097188" y="678.8225099390856" type="line"/>
      <point x="190.53770036530827" y="505.85782729982554" type="line"/>
      <point x="218.82197161277017" y="534.1420985472874" type="line"/>
      <point x="45.85728897350998" y="650.5382386916237" type="line"/>
    </contour>
    <contour>
      <point x="325.3617503341473" y="427.6023198259103" type="line"/>
      <point x="710.5376632888648" y="-14.14213562373089" type="line"/>
      <point x="738.8219345363267" y="14.142135623731008" type="line"/>
      <point x="297.0774790866854" y="399.3180485784484" type="line"/>
    </contour>
    <contour>
      <point x="74.14156022097188" y="707.1067811865476" type="line"/>
      <point x="218.82197161277017" y="505.85782729982554" type="line"/>
      <point x="247.10624286023207" y="534.1420985472874" type="line"/>
      <point x="45.85728897350998" y="678.8225099390856" type="line"/>
    </contour>
    <contour>
      <point x="343.8327936723023" y="437.41554773521716" type="line"/>
      <point x="738.8219345363267" y="-14.14213562373089" type="line"/>
      <point x="767.1062057837886" y="14.142135623731008" type="line"/>
      <point x="315.54852242484037" y="409.13127648775526" type="line"/>
    </contour>
    <contour>
      <point x="74.14156022097188" y="735.3910524340095" type="line"/>
      <point x="247.1062428602321" y="505.85782729982554" type="line"/>
      <point x="275.390514107694" y="534.1420985472874" type="line"/>
      <point x="45.85728897350998" y="707.1067811865476" type="line"/>
    </contour>
    <contour>
      <point x="362.3045441172385" y="447.2280685377429" type="line"/>
      <point x="767.1062057837886" y="-14.14213562373089" type="line"/>
      <point x="795.3904770312505" y="14.142135623731008" type="line"/>
      <point x="334.0202728697766" y="418.943797290281" type="line"/>
    </contour>
    <contour>
      <point x="74.14156022097188" y="763.6753236814714" type="line"/>
      <point x="275.390514107694" y="505.85782729982554" type="line"/>
      <point x="303.6747853551559" y="534.1420985472874" type="line"/>
      <point x="45.85728897350998" y="735.3910524340095" type="line"/>
    </contour>
    <contour>
      <point x="380.77558745539346" y="457.04129644704983" type="line"/>
      <point x="795.3904770312505" y="-14.14213562373089" type="line"/>
      <point x="823.6747482787124" y="14.142135623731008" type="line"/>
      <point x="352.49131620793156" y="428.75702519958793" type="line"/>
    </contour>
    <contour>
      <point x="74.14156022097188" y="791.9595949289333" type="line"/>
      <point x="303.6747853551559" y="505.85782729982554" type="line"/>
      <point x="331.9590566026178" y="534.1420985472874" type="line"/>
      <point x="45.85728897350998" y="763.6753236814714" type="line"/>
    </contour>
    <contour>
      <point x="399.2473379003297" y="466.8538172495755" type="line"/>
      <point x="823.6747482787124" y="-14.14213562373089" type="line"/>
      <point x="851.9590195261743" y="14.142135623731008" type="line"/>
      <point x="370.9630666528678" y="438.5695460021136" type="line"/>
    </contour>
    <contour>
      <point x="80.24389174261182" y="814.1415346547552" type="line"/>
      <point x="331.9590566026178" y="505.85782729982554" type="line"/>
      <point x="360.2433278500797" y="534.1420985472874" type="line"/>
      <point x="51.95962049514992" y="785.8572634072933" type="line"/>
    </contour>
    <contour>
      <point x="417.71838123848465" y="476.66704515888244" type="line"/>
      <point x="851.9590195261743" y="-14.14213562373089" type="line"/>
      <point x="880.2432907736362" y="14.142135623731008" type="line"/>
      <point x="389.43410999102275" y="448.38277391142054" type="line"/>
    </contour>
    <contour>
      <point x="108.52816299007367" y="814.1415346547552" type="line"/>
      <point x="360.2433278500797" y="505.85782729982554" type="line"/>
      <point x="388.5275990975416" y="534.1420985472874" type="line"/>
      <point x="80.24389174261177" y="785.8572634072933" type="line"/>
    </contour>
    <contour>
      <point x="436.1901316834208" y="486.4795659614082" type="line"/>
      <point x="880.2432907736362" y="-14.14213562373089" type="line"/>
      <point x="908.5275620210981" y="14.142135623731008" type="line"/>
      <point x="407.9058604359589" y="458.1952947139463" type="line"/>
    </contour>
    <contour>
      <point x="136.81243423753557" y="814.1415346547552" type="line"/>
      <point x="388.5275990975416" y="505.85782729982554" type="line"/>
      <point x="416.8118703450035" y="534.1420985472874" type="line"/>
      <point x="108.52816299007367" y="785.8572634072933" type="line"/>
    </contour>
    <contour>
      <point x="454.66117502157584" y="496.29279387071506" type="line"/>
      <point x="908.5275620210981" y="-14.14213562373089" type="line"/>
      <point x="936.81183326856" y="14.142135623731008" type="line"/>
      <point x="426.37690377411394" y="468.00852262325316" type="line"/>
    </contour>
    <contour>
      <point x="165.09670548499747" y="814.1415346547552" type="line"/>
      <point x="416.8118703450035" y="505.85782729982554" type="line"/>
      <point x="445.0961415924654" y="534.1420985472874" type="line"/>
      <point x="136.81243423753557" y="785.8572634072933" type="line"/>
    </contour>
    <contour>
      <point x="473.1322183597308" y="506.106021780022" type="line"/>
      <point x="936.81183326856" y="-14.14213562373089" type="line"/>
      <point x="965.0961045160219" y="14.142135623731008" type="line"/>
      <point x="444.8479471122689" y="477.8217505325601" type="line"/>
    </contour>
    <contour>
      <point x="193.38097673245932" y="814.1415346547552" type="line"/>
      <point x="445.09614159246536" y="505.85782729982554" type="line"/>
      <point x="473.38041283992726" y="534.1420985472874" type="line"/>
      <point x="165.09670548499741" y="785.8572634072933" type="line"/>
    </contour>
    <contour>
      <point x="491.603968804667" y="515.9185425825476" type="line"/>
      <point x="965.0961045160218" y="-14.142135623730834" type="line"/>
      <point x="993.3803757634837" y="14.142135623731065" type="line"/>
      <point x="463.3196975572051" y="487.63427133508577" type="line"/>
    </contour>
    <contour>
      <point x="221.66524797992122" y="814.1415346547552" type="line"/>
      <point x="473.38041283992726" y="505.85782729982554" type="line"/>
      <point x="501.66468408738916" y="534.1420985472874" type="line"/>
      <point x="193.38097673245932" y="785.8572634072933" type="line"/>
    </contour>
    <contour>
      <point x="510.07501214282195" y="525.7317704918546" type="line"/>
      <point x="993.3803757634837" y="-14.142135623730834" type="line"/>
      <point x="1021.6646470109456" y="14.142135623731065" type="line"/>
      <point x="481.79074089536005" y="497.4474992443927" type="line"/>
    </contour>
    <contour>
      <point x="249.94951922738312" y="814.1415346547552" type="line"/>
      <point x="1021.6646470109455" y="-14.142135623730834" type="line"/>
      <point x="1049.9489182584075" y="14.142135623731063" type="line"/>
      <point x="221.66524797992122" y="785.8572634072933" type="line"/>
    </contour>
    <contour>
      <point x="278.233790474845" y="814.1415346547552" type="line"/>
      <point x="764.4481913933082" y="271.3585912413684" type="line"/>
      <point x="792.7324626407701" y="299.6428624888303" type="line"/>
      <point x="249.94951922738312" y="785.8572634072933" type="line"/>
    </contour>
    <contour>
      <point x="798.2337533984014" y="294.14157173119895" type="line"/>
      <point x="1049.9489182584077" y="-14.14213562373084" type="line"/>
      <point x="1078.2331895058694" y="14.142135623731068" type="line"/>
      <point x="769.9494821509395" y="265.85730048373705" type="line"/>
    </contour>
    <contour>
      <point x="306.5180617223069" y="814.1415346547552" type="line"/>
      <point x="782.9192347314632" y="281.17181915067533" type="line"/>
      <point x="811.2035059789251" y="309.45609039813723" type="line"/>
      <point x="278.233790474845" y="785.8572634072933" type="line"/>
    </contour>
    <contour>
      <point x="826.5180246458634" y="294.14157173119895" type="line"/>
      <point x="1078.2331895058692" y="-14.142135623730834" type="line"/>
      <point x="1106.5174607533313" y="14.142135623731061" type="line"/>
      <point x="798.2337533984015" y="265.85730048373705" type="line"/>
    </contour>
    <contour>
      <point x="334.8023329697688" y="814.1415346547553" type="line"/>
      <point x="801.3909851763993" y="290.984339953201" type="line"/>
      <point x="829.6752564238612" y="319.2686112006629" type="line"/>
      <point x="306.5180617223069" y="785.8572634072934" type="line"/>
    </contour>
    <contour>
      <point x="854.8022958933253" y="294.14157173119895" type="line"/>
      <point x="1106.5174607533313" y="-14.142135623730834" type="line"/>
      <point x="1134.8017320007932" y="14.142135623731068" type="line"/>
      <point x="826.5180246458634" y="265.85730048373705" type="line"/>
    </contour>
    <contour>
      <point x="363.08660421723073" y="814.1415346547553" type="line"/>
      <point x="819.8620285145544" y="300.79756786250795" type="line"/>
      <point x="848.1462997620163" y="329.08183910996985" type="line"/>
      <point x="334.8023329697688" y="785.8572634072934" type="line"/>
    </contour>
    <contour>
      <point x="883.0865671407872" y="294.14157173119895" type="line"/>
      <point x="1134.801732000793" y="-14.142135623730834" type="line"/>
      <point x="1163.086003248255" y="14.142135623731061" type="line"/>
      <point x="854.8022958933253" y="265.85730048373705" type="line"/>
    </contour>
    <contour>
      <point x="391.37087546469263" y="814.1415346547553" type="line"/>
      <point x="838.3337789594906" y="310.6100886650337" type="line"/>
      <point x="866.6180502069525" y="338.8943599124956" type="line"/>
      <point x="363.08660421723073" y="785.8572634072934" type="line"/>
    </contour>
    <contour>
      <point x="911.3708383882491" y="294.14157173119895" type="line"/>
      <point x="1163.086003248255" y="-14.142135623730834" type="line"/>
      <point x="1191.370274495717" y="14.142135623731068" type="line"/>
      <point x="883.0865671407872" y="265.85730048373705" type="line"/>
    </contour>
    <contour>
      <point x="419.65514671215453" y="814.1415346547553" type="line"/>
      <point x="856.8048222976455" y="320.42331657434056" type="line"/>
      <point x="885.0890935451074" y="348.70758782180246" type="line"/>
      <point x="391.37087546469263" y="785.8572634072934" type="line"/>
    </contour>
    <contour>
      <point x="939.655109635711" y="294.14157173119895" type="line"/>
      <point x="1191.3702744957168" y="-14.142135623730834" type="line"/>
      <point x="1219.654545743179" y="14.142135623731061" type="line"/>
      <point x="911.3708383882491" y="265.85730048373705" type="line"/>
    </contour>
    <contour>
      <point x="447.93941795961643" y="814.1415346547553" type="line"/>
      <point x="875.2758656358005" y="330.23654448364744" type="line"/>
      <point x="903.5601368832624" y="358.52081573110934" type="line"/>
      <point x="419.65514671215453" y="785.8572634072934" type="line"/>
    </contour>
    <contour>
      <point x="967.9393808831729" y="294.14157173119895" type="line"/>
      <point x="1205.8574782286669" y="-0.34506810921891073" type="line"/>
      <point x="1234.141749476129" y="27.939203138242988" type="line"/>
      <point x="939.655109635711" y="265.85730048373705" type="line"/>
    </contour>
    <contour>
      <point x="476.22368920707834" y="814.1415346547552" type="line"/>
      <point x="893.7476160807367" y="340.0490652861732" type="line"/>
      <point x="922.0318873281986" y="368.3333365336351" type="line"/>
      <point x="447.93941795961643" y="785.8572634072933" type="line"/>
    </contour>
    <contour>
      <point x="996.2236521306348" y="294.14157173119895" type="line"/>
      <point x="1205.8574782286669" y="27.93920313824299" type="line"/>
      <point x="1234.141749476129" y="56.22347438570489" type="line"/>
      <point x="967.9393808831729" y="265.85730048373705" type="line"/>
    </contour>
    <contour>
      <point x="504.50796045454024" y="814.1415346547552" type="line"/>
      <point x="912.2186594188917" y="349.8622931954801" type="line"/>
      <point x="940.5029306663536" y="378.146564442942" type="line"/>
      <point x="476.22368920707834" y="785.8572634072933" type="line"/>
    </contour>
    <contour>
      <point x="1024.5079233780966" y="294.14157173119895" type="line"/>
      <point x="1205.8574782286669" y="56.22347438570489" type="line"/>
      <point x="1234.141749476129" y="84.50774563316679" type="line"/>
      <point x="996.2236521306348" y="265.85730048373705" type="line"/>
    </contour>
    <contour>
      <point x="532.7922317020021" y="814.1415346547552" type="line"/>
      <point x="930.6904098638279" y="359.6748139980058" type="line"/>
      <point x="958.9746811112898" y="387.9590852454677" type="line"/>
      <point x="504.50796045454024" y="785.8572634072933" type="line"/>
    </contour>
    <contour>
      <point x="1052.7921946255587" y="294.14157173119895" type="line"/>
      <point x="1205.8574782286669" y="84.50774563316679" type="line"/>
      <point x="1234.141749476129" y="112.7920168806287" type="line"/>
      <point x="1024.5079233780966" y="265.85730048373705" type="line"/>
    </contour>
    <contour>
      <point x="561.076502949464" y="814.1415346547553" type="line"/>
      <point x="949.1614532019829" y="369.4880419073127" type="line"/>
      <point x="977.4457244494448" y="397.7723131547746" type="line"/>
      <point x="532.7922317020021" y="785.8572634072934" type="line"/>
    </contour>
    <contour>
      <point x="1081.0764658730204" y="294.14157173119895" type="line"/>
      <point x="1205.8574782286669" y="112.7920168806287" type="line"/>
      <point x="1234.141749476129" y="141.0762881280906" type="line"/>
      <point x="1052.7921946255585" y="265.85730048373705" type="line"/>
    </contour>
    <contour>
      <point x="589.360774196926" y="814.1415346547553" type="line"/>
      <point x="967.633203646919" y="379.3005627098384" type="line"/>
      <point x="995.9174748943809" y="407.5848339573003" type="line"/>
      <point x="561.076502949464" y="785.8572634072934" type="line"/>
    </contour>
    <contour>
      <point x="1109.3607371204826" y="294.14157173119895" type="line"/>
      <point x="1205.8574782286669" y="141.0762881280906" type="line"/>
      <point x="1234.141749476129" y="169.3605593755525" type="line"/>
      <point x="1081.0764658730204" y="265.85730048373705" type="line"/>
    </contour>
    <contour>
      <point x="617.6450454443878" y="814.1415346547553" type="line"/>
      <point x="986.1042469850742" y="389.11379061914533" type="line"/>
      <point x="1014.3885182325361" y="417.39806186660724" type="line"/>
      <point x="589.360774196926" y="785.8572634072934" type="line"/>
    </contour>
    <contour>
      <point x="1137.6450083679442" y="294.14157173119895" type="line"/>
      <point x="1205.8574782286669" y="169.3605593755525" type="line"/>
      <point x="1234.141749476129" y="197.6448306230144" type="line"/>
      <point x="1109.3607371204823" y="265.85730048373705" type="line"/>
    </contour>
    <contour>
      <point x="645.9293166918497" y="814.1415346547553" type="line"/>
      <point x="1004.5759974300103" y="398.9263114216711" type="line"/>
      <point x="1032.860268677472" y="427.210582669133" type="line"/>
      <point x="617.6450454443878" y="785.8572634072934" type="line"/>
    </contour>
    <contour>
      <point x="1165.9292796154064" y="294.14157173119895" type="line"/>
      <point x="1205.8574782286669" y="197.6448306230144" type="line"/>
      <point x="1234.141749476129" y="225.9291018704763" type="line"/>
      <point x="1137.6450083679442" y="265.85730048373705" type="line"/>
    </contour>
    <contour>
      <point x="674.2135879393115" y="814.1415346547552" type="line"/>
      <point x="1023.0470407681652" y="408.7395393309779" type="line"/>
      <point x="1051.331312015627" y="437.0238105784398" type="line"/>
      <point x="645.9293166918496" y="785.8572634072933" type="line"/>
    </contour>
    <contour>
      <point x="702.4978591867734" y="814.1415346547552" type="line"/>
      <point x="1041.5187912131012" y="418.5520601335036" type="line"/>
      <point x="1069.803062460563" y="446.8363313809655" type="line"/>
      <point x="674.2135879393115" y="785.8572634072933" type="line"/>
    </contour>
    <contour>
      <point x="730.7821304342353" y="814.1415346547552" type="line"/>
      <point x="1059.989834551256" y="428.3652880428105" type="line"/>
      <point x="1088.2741057987182" y="456.6495592902724" type="line"/>
      <point x="702.4978591867734" y="785.8572634072933" type="line"/>
    </contour>
    <contour>
      <point x="759.0664016816972" y="814.1415346547552" type="line"/>
      <point x="1078.4608778894112" y="438.1785159521174" type="line"/>
      <point x="1106.7451491368734" y="466.4627871995793" type="line"/>
      <point x="730.7821304342353" y="785.8572634072933" type="line"/>
    </contour>
    <contour>
      <point x="787.3506729291591" y="814.1415346547552" type="line"/>
      <point x="1096.9326283343473" y="447.9910367546431" type="line"/>
      <point x="1125.2168995818092" y="476.275308002105" type="line"/>
      <point x="759.0664016816972" y="785.8572634072933" type="line"/>
    </contour>
    <contour>
      <point x="815.634944176621" y="814.1415346547552" type="line"/>
      <point x="1115.4036716725022" y="457.80426466395005" type="line"/>
      <point x="1143.6879429199644" y="486.08853591141195" type="line"/>
      <point x="787.3506729291591" y="785.8572634072933" type="line"/>
    </contour>
    <contour>
      <point x="843.919215424083" y="814.1415346547552" type="line"/>
      <point x="1133.8754221174386" y="467.61678546647573" type="line"/>
      <point x="1162.1596933649007" y="495.90105671393763" type="line"/>
      <point x="815.634944176621" y="785.8572634072933" type="line"/>
    </contour>
    <contour>
      <point x="872.2034866715449" y="814.1415346547552" type="line"/>
      <point x="1152.3464654555935" y="477.43001337578266" type="line"/>
      <point x="1180.6307367030554" y="505.71428462324457" type="line"/>
      <point x="843.919215424083" y="785.8572634072933" type="line"/>
    </contour>
    <contour>
      <point x="900.4877579190068" y="814.1415346547552" type="line"/>
      <point x="1170.8182159005296" y="487.2425341783084" type="line"/>
      <point x="1199.1024871479917" y="515.5268054257702" type="line"/>
      <point x="872.2034866715449" y="785.8572634072933" type="line"/>
    </contour>
    <contour>
      <point x="928.7720291664687" y="814.1415346547552" type="line"/>
      <point x="1189.2892592386847" y="497.0557620876153" type="line"/>
      <point x="1217.5735304861469" y="525.3400333350771" type="line"/>
      <point x="900.4877579190068" y="785.8572634072933" type="line"/>
    </contour>
    <contour>
      <point x="957.0563004139306" y="814.1415346547552" type="line"/>
      <point x="1205.8574782286667" y="508.7718143450952" type="line"/>
      <point x="1234.1417494761286" y="537.0560855925571" type="line"/>
      <point x="928.7720291664687" y="785.8572634072933" type="line"/>
    </contour>
    <contour>
      <point x="985.3405716613925" y="814.1415346547552" type="line"/>
      <point x="1205.8574782286667" y="537.0560855925571" type="line"/>
      <point x="1234.1417494761286" y="565.340356840019" type="line"/>
      <point x="957.0563004139306" y="785.8572634072933" type="line"/>
    </contour>
    <contour>
      <point x="1013.6248429088544" y="814.1415346547552" type="line"/>
      <point x="1205.8574782286667" y="565.340356840019" type="line"/>
      <point x="1234.1417494761286" y="593.6246280874809" type="line"/>
      <point x="985.3405716613925" y="785.8572634072933" type="line"/>
    </contour>
    <contour>
      <point x="1041.9091141563165" y="814.1415346547552" type="line"/>
      <point x="1205.8574782286667" y="593.6246280874809" type="line"/>
      <point x="1234.1417494761288" y="621.9088993349428" type="line"/>
      <point x="1013.6248429088545" y="785.8572634072933" type="line"/>
    </contour>
    <contour>
      <point x="1070.1933854037784" y="814.1415346547552" type="line"/>
      <point x="1205.8574782286667" y="621.9088993349428" type="line"/>
      <point x="1234.1417494761288" y="650.1931705824047" type="line"/>
      <point x="1041.9091141563163" y="785.8572634072933" type="line"/>
    </contour>
    <contour>
      <point x="1098.4776566512403" y="814.1415346547552" type="line"/>
      <point x="1205.8574782286667" y="650.1931705824047" type="line"/>
      <point x="1234.1417494761288" y="678.4774418298666" type="line"/>
      <point x="1070.1933854037782" y="785.8572634072933" type="line"/>
    </contour>
    <contour>
      <point x="1126.7619278987022" y="814.1415346547552" type="line"/>
      <point x="1205.8574782286667" y="678.4774418298666" type="line"/>
      <point x="1234.1417494761288" y="706.7617130773285" type="line"/>
      <point x="1098.47765665124" y="785.8572634072933" type="line"/>
    </contour>
    <contour>
      <point x="1155.046199146164" y="814.1415346547552" type="line"/>
      <point x="1205.8574782286667" y="706.7617130773285" type="line"/>
      <point x="1234.1417494761288" y="735.0459843247904" type="line"/>
      <point x="1126.761927898702" y="785.8572634072933" type="line"/>
    </contour>
  </outline>
</glyph>
